<svg xmlns="http://www.w3.org/2000/svg" xmlns:xlink="http://www.w3.org/1999/xlink" width="500" zoomAndPan="magnify" viewBox="0 0 375 374.999991" height="500" preserveAspectRatio="xMidYMid meet" version="1.0"><rect x="-37.5" width="450" fill="#ffffff" y="-37.499999" height="449.999989" fill-opacity="1"/><rect x="-37.5" width="450" fill="#bba9a2" y="-37.499999" height="449.999989" fill-opacity="1"/><path fill="#efe5dc" d="M 328.359375 94.847656 C 328.359375 93.699219 328.207031 92.570312 327.90625 91.460938 C 327.601562 90.355469 327.15625 89.308594 326.570312 88.320312 C 325.984375 87.332031 325.277344 86.441406 324.453125 85.644531 C 323.625 84.847656 322.707031 84.175781 321.699219 83.628906 C 320.691406 83.078125 319.625 82.675781 318.507812 82.414062 C 317.390625 82.152344 316.257812 82.042969 315.109375 82.085938 C 313.964844 82.132812 312.84375 82.328125 311.746094 82.675781 C 310.652344 83.023438 309.625 83.507812 308.660156 84.136719 C 308.304688 83.3125 307.886719 82.527344 307.402344 81.773438 C 306.921875 81.019531 306.378906 80.308594 305.785156 79.640625 C 305.1875 78.972656 304.542969 78.355469 303.847656 77.789062 C 303.152344 77.226562 302.417969 76.722656 301.640625 76.273438 C 300.863281 75.828125 300.058594 75.445312 299.21875 75.128906 C 298.382812 74.808594 297.527344 74.5625 296.648438 74.382812 C 295.773438 74.199219 294.886719 74.089844 293.992188 74.050781 C 293.097656 74.015625 292.207031 74.046875 291.316406 74.152344 C 290.425781 74.253906 289.550781 74.429688 288.691406 74.671875 C 287.828125 74.917969 286.992188 75.230469 286.179688 75.609375 C 285.367188 75.984375 284.59375 76.425781 283.851562 76.929688 C 283.109375 77.429688 282.414062 77.988281 281.761719 78.601562 C 281.109375 79.21875 280.511719 79.878906 279.964844 80.589844 C 279.421875 81.296875 278.933594 82.046875 278.507812 82.835938 C 278.082031 83.621094 277.722656 84.4375 277.425781 85.285156 C 277.132812 86.128906 276.90625 86.992188 276.746094 87.875 C 276.398438 87.65625 276.039062 87.464844 275.667969 87.289062 C 275.296875 87.117188 274.917969 86.964844 274.527344 86.832031 C 274.140625 86.703125 273.742188 86.59375 273.34375 86.511719 C 272.941406 86.425781 272.535156 86.363281 272.128906 86.328125 C 271.71875 86.289062 271.3125 86.273438 270.902344 86.285156 C 270.492188 86.292969 270.082031 86.328125 269.675781 86.382812 C 269.269531 86.4375 268.871094 86.519531 268.472656 86.621094 C 268.074219 86.722656 267.6875 86.847656 267.304688 86.996094 C 266.921875 87.144531 266.546875 87.3125 266.1875 87.503906 C 265.824219 87.695312 265.472656 87.90625 265.132812 88.136719 C 264.792969 88.367188 264.46875 88.617188 264.160156 88.886719 C 263.851562 89.15625 263.558594 89.441406 263.28125 89.742188 C 263.003906 90.042969 262.746094 90.363281 262.503906 90.695312 C 262.265625 91.027344 262.042969 91.371094 261.84375 91.730469 C 261.644531 92.085938 261.464844 92.453125 261.304688 92.832031 C 261.148438 93.210938 261.011719 93.597656 260.898438 93.992188 C 260.785156 94.386719 260.695312 94.785156 260.625 95.1875 C 260.558594 95.59375 260.515625 96 260.496094 96.410156 C 260.472656 96.820312 260.476562 97.226562 260.503906 97.636719 C 260.53125 98.046875 260.582031 98.453125 260.652344 98.855469 C 260.726562 99.257812 260.824219 99.65625 260.945312 100.050781 C 261.0625 100.441406 261.203125 100.824219 261.367188 101.203125 C 261.53125 101.578125 261.71875 101.941406 261.921875 102.296875 C 262.128906 102.652344 262.355469 102.992188 262.597656 103.320312 C 262.84375 103.648438 263.109375 103.964844 263.390625 104.261719 C 263.671875 104.558594 263.96875 104.839844 264.28125 105.105469 C 264.597656 105.367188 264.925781 105.613281 265.265625 105.839844 C 265.609375 106.066406 265.960938 106.269531 266.328125 106.457031 C 266.695312 106.640625 267.070312 106.804688 267.453125 106.945312 C 267.839844 107.089844 268.230469 107.207031 268.628906 107.304688 C 269.027344 107.402344 269.429688 107.472656 269.835938 107.523438 C 270.242188 107.574219 270.652344 107.601562 271.0625 107.605469 L 316.28125 107.605469 C 317.089844 107.558594 317.886719 107.4375 318.671875 107.242188 C 319.457031 107.046875 320.214844 106.777344 320.949219 106.4375 C 321.683594 106.09375 322.378906 105.6875 323.035156 105.214844 C 323.691406 104.742188 324.300781 104.214844 324.855469 103.625 C 325.410156 103.039062 325.90625 102.402344 326.34375 101.722656 C 326.78125 101.039062 327.148438 100.324219 327.445312 99.570312 C 327.746094 98.820312 327.972656 98.046875 328.125 97.253906 C 328.28125 96.457031 328.355469 95.65625 328.359375 94.847656 Z M 328.359375 94.847656 " fill-opacity="1" fill-rule="nonzero"/><path fill="#efe5dc" d="M 74.101562 199.582031 C 74.105469 198.433594 73.953125 197.304688 73.648438 196.199219 C 73.34375 195.089844 72.898438 194.042969 72.3125 193.058594 C 71.726562 192.070312 71.019531 191.179688 70.195312 190.382812 C 69.367188 189.585938 68.449219 188.914062 67.441406 188.367188 C 66.433594 187.820312 65.367188 187.414062 64.25 187.152344 C 63.132812 186.890625 62 186.785156 60.855469 186.828125 C 59.707031 186.875 58.585938 187.070312 57.492188 187.417969 C 56.398438 187.765625 55.371094 188.25 54.40625 188.875 C 54.050781 188.054688 53.632812 187.265625 53.148438 186.511719 C 52.667969 185.757812 52.125 185.042969 51.53125 184.375 C 50.933594 183.707031 50.289062 183.089844 49.59375 182.527344 C 48.898438 181.960938 48.160156 181.453125 47.386719 181.007812 C 46.609375 180.558594 45.800781 180.175781 44.964844 179.859375 C 44.128906 179.542969 43.269531 179.292969 42.390625 179.113281 C 41.515625 178.929688 40.628906 178.820312 39.734375 178.78125 C 38.839844 178.742188 37.945312 178.777344 37.054688 178.878906 C 36.167969 178.984375 35.289062 179.160156 34.429688 179.402344 C 33.566406 179.648438 32.730469 179.960938 31.917969 180.339844 C 31.105469 180.714844 30.328125 181.15625 29.589844 181.660156 C 28.847656 182.164062 28.148438 182.722656 27.5 183.335938 C 26.847656 183.949219 26.246094 184.613281 25.703125 185.324219 C 25.15625 186.035156 24.671875 186.785156 24.242188 187.570312 C 23.816406 188.359375 23.457031 189.175781 23.164062 190.023438 C 22.867188 190.867188 22.640625 191.734375 22.484375 192.613281 C 22.136719 192.398438 21.777344 192.203125 21.40625 192.03125 C 21.035156 191.855469 20.652344 191.703125 20.265625 191.574219 C 19.875 191.445312 19.480469 191.335938 19.082031 191.253906 C 18.679688 191.167969 18.273438 191.105469 17.867188 191.070312 C 17.457031 191.03125 17.050781 191.015625 16.640625 191.027344 C 16.230469 191.035156 15.820312 191.066406 15.414062 191.125 C 15.007812 191.179688 14.609375 191.261719 14.210938 191.363281 C 13.8125 191.464844 13.425781 191.589844 13.042969 191.738281 C 12.660156 191.886719 12.285156 192.054688 11.921875 192.246094 C 11.5625 192.4375 11.210938 192.648438 10.871094 192.878906 C 10.53125 193.109375 10.207031 193.359375 9.898438 193.628906 C 9.589844 193.894531 9.296875 194.179688 9.019531 194.484375 C 8.742188 194.785156 8.484375 195.101562 8.242188 195.433594 C 8.003906 195.769531 7.78125 196.113281 7.582031 196.46875 C 7.382812 196.828125 7.203125 197.195312 7.042969 197.574219 C 6.886719 197.953125 6.75 198.339844 6.636719 198.730469 C 6.523438 199.125 6.433594 199.527344 6.363281 199.929688 C 6.296875 200.335938 6.253906 200.742188 6.234375 201.152344 C 6.210938 201.558594 6.214844 201.96875 6.242188 202.378906 C 6.269531 202.789062 6.320312 203.195312 6.390625 203.597656 C 6.464844 204 6.5625 204.398438 6.683594 204.789062 C 6.800781 205.183594 6.941406 205.566406 7.105469 205.941406 C 7.269531 206.320312 7.453125 206.683594 7.660156 207.039062 C 7.867188 207.394531 8.09375 207.734375 8.335938 208.0625 C 8.582031 208.390625 8.847656 208.703125 9.128906 209.003906 C 9.410156 209.300781 9.707031 209.582031 10.019531 209.847656 C 10.335938 210.109375 10.660156 210.355469 11.003906 210.582031 C 11.347656 210.804688 11.699219 211.011719 12.066406 211.195312 C 12.429688 211.382812 12.808594 211.546875 13.191406 211.6875 C 13.574219 211.828125 13.96875 211.949219 14.367188 212.046875 C 14.765625 212.140625 15.167969 212.214844 15.574219 212.265625 C 15.980469 212.316406 16.390625 212.34375 16.800781 212.347656 L 62.035156 212.347656 C 62.839844 212.300781 63.636719 212.179688 64.421875 211.980469 C 65.207031 211.785156 65.96875 211.515625 66.699219 211.175781 C 67.433594 210.832031 68.128906 210.425781 68.785156 209.953125 C 69.441406 209.480469 70.050781 208.949219 70.605469 208.363281 C 71.160156 207.773438 71.65625 207.140625 72.09375 206.457031 C 72.527344 205.773438 72.894531 205.058594 73.195312 204.304688 C 73.496094 203.554688 73.71875 202.78125 73.871094 201.988281 C 74.027344 201.191406 74.101562 200.390625 74.101562 199.582031 Z M 74.101562 199.582031 " fill-opacity="1" fill-rule="nonzero"/><path fill="#efe5dc" d="M 120.253906 72.839844 C 120.253906 71.222656 120.039062 69.632812 119.613281 68.074219 C 119.183594 66.515625 118.554688 65.039062 117.730469 63.652344 C 116.902344 62.261719 115.90625 61.003906 114.742188 59.882812 C 113.578125 58.761719 112.285156 57.8125 110.863281 57.042969 C 109.441406 56.269531 107.945312 55.699219 106.371094 55.328125 C 104.796875 54.960938 103.199219 54.808594 101.585938 54.867188 C 99.96875 54.929688 98.390625 55.207031 96.847656 55.691406 C 95.304688 56.179688 93.855469 56.863281 92.496094 57.742188 C 91.996094 56.585938 91.402344 55.476562 90.722656 54.414062 C 90.042969 53.355469 89.28125 52.351562 88.441406 51.414062 C 87.601562 50.472656 86.691406 49.605469 85.710938 48.8125 C 84.730469 48.015625 83.695312 47.304688 82.601562 46.675781 C 81.507812 46.046875 80.371094 45.507812 79.191406 45.0625 C 78.011719 44.617188 76.804688 44.265625 75.570312 44.011719 C 74.335938 43.757812 73.085938 43.605469 71.828125 43.550781 C 70.566406 43.496094 69.3125 43.542969 68.058594 43.6875 C 66.804688 43.835938 65.574219 44.082031 64.359375 44.425781 C 63.144531 44.769531 61.96875 45.207031 60.824219 45.742188 C 59.679688 46.273438 58.585938 46.894531 57.542969 47.601562 C 56.5 48.308594 55.519531 49.097656 54.601562 49.960938 C 53.683594 50.824219 52.839844 51.757812 52.070312 52.757812 C 51.300781 53.757812 50.617188 54.8125 50.015625 55.917969 C 49.414062 57.027344 48.90625 58.179688 48.492188 59.371094 C 48.074219 60.558594 47.753906 61.777344 47.535156 63.015625 C 47.042969 62.710938 46.53125 62.429688 46.007812 62.183594 C 45.484375 61.933594 44.945312 61.714844 44.398438 61.527344 C 43.847656 61.34375 43.289062 61.1875 42.722656 61.066406 C 42.152344 60.941406 41.582031 60.855469 41.003906 60.796875 C 40.425781 60.742188 39.847656 60.71875 39.265625 60.730469 C 38.6875 60.742188 38.109375 60.789062 37.53125 60.867188 C 36.957031 60.945312 36.386719 61.054688 35.824219 61.199219 C 35.261719 61.34375 34.710938 61.519531 34.167969 61.726562 C 33.628906 61.933594 33.097656 62.171875 32.585938 62.441406 C 32.070312 62.710938 31.574219 63.007812 31.09375 63.335938 C 30.613281 63.660156 30.152344 64.015625 29.714844 64.394531 C 29.273438 64.773438 28.859375 65.175781 28.46875 65.605469 C 28.074219 66.03125 27.707031 66.480469 27.367188 66.953125 C 27.027344 67.421875 26.714844 67.910156 26.429688 68.417969 C 26.148438 68.921875 25.894531 69.445312 25.667969 69.980469 C 25.445312 70.515625 25.253906 71.0625 25.09375 71.621094 C 24.933594 72.179688 24.804688 72.742188 24.710938 73.316406 C 24.617188 73.890625 24.554688 74.464844 24.527344 75.046875 C 24.5 75.625 24.503906 76.203125 24.542969 76.785156 C 24.582031 77.363281 24.652344 77.9375 24.757812 78.507812 C 24.863281 79.082031 25.003906 79.644531 25.171875 80.199219 C 25.34375 80.753906 25.546875 81.296875 25.78125 81.828125 C 26.011719 82.359375 26.277344 82.875 26.570312 83.375 C 26.863281 83.878906 27.183594 84.359375 27.53125 84.824219 C 27.882812 85.289062 28.257812 85.730469 28.65625 86.148438 C 29.058594 86.570312 29.480469 86.96875 29.925781 87.339844 C 30.371094 87.710938 30.839844 88.054688 31.324219 88.371094 C 31.808594 88.691406 32.3125 88.976562 32.832031 89.238281 C 33.351562 89.496094 33.882812 89.726562 34.429688 89.921875 C 34.976562 90.121094 35.53125 90.285156 36.097656 90.421875 C 36.660156 90.554688 37.230469 90.652344 37.808594 90.722656 C 38.386719 90.789062 38.964844 90.824219 39.542969 90.824219 L 103.257812 90.824219 C 104.398438 90.761719 105.519531 90.589844 106.625 90.316406 C 107.734375 90.039062 108.804688 89.660156 109.839844 89.179688 C 110.871094 88.699219 111.851562 88.128906 112.777344 87.460938 C 113.703125 86.796875 114.558594 86.046875 115.339844 85.21875 C 116.125 84.390625 116.824219 83.496094 117.433594 82.535156 C 118.046875 81.570312 118.566406 80.5625 118.984375 79.5 C 119.40625 78.441406 119.722656 77.351562 119.9375 76.230469 C 120.148438 75.109375 120.253906 73.980469 120.253906 72.839844 Z M 120.253906 72.839844 " fill-opacity="1" fill-rule="nonzero"/><path fill="#30241b" d="M 324.738281 113.648438 C 324.738281 113.648438 341.222656 109.183594 351.523438 150.378906 C 361.472656 190.234375 353.121094 192.359375 351.570312 193.167969 C 346.496094 195.8125 314.171875 199.644531 297.347656 194.492188 C 280.523438 189.339844 240.554688 179.039062 240.554688 179.039062 C 240.554688 179.039062 264.011719 185.378906 268.445312 148.476562 C 272.878906 111.570312 300.707031 95.101562 324.738281 113.648438 Z M 324.738281 113.648438 " fill-opacity="1" fill-rule="nonzero"/><path fill="#30241b" d="M 309.507812 185.683594 C 311.335938 185.710938 313.140625 185.523438 314.925781 185.128906 C 316.707031 184.734375 318.421875 184.140625 320.070312 183.347656 C 321.714844 182.554688 323.246094 181.582031 324.667969 180.429688 C 326.085938 179.28125 327.355469 177.984375 328.472656 176.535156 C 334.15625 168.980469 346.242188 161.609375 343.9375 137.757812 C 341.550781 113.171875 304.132812 104.128906 289.796875 113.964844 C 267.359375 129.304688 269.839844 160.757812 278.789062 175.023438 C 284.347656 183.859375 299.125 185.597656 309.507812 185.683594 Z M 309.507812 185.683594 " fill-opacity="1" fill-rule="nonzero"/><path fill="#f1baa4" d="M 316.1875 176.1875 C 316.1875 176.1875 313.238281 191.648438 312.328125 198.882812 C 312.328125 198.882812 282.710938 226.492188 285.15625 197.320312 C 285.15625 197.320312 290.664062 172.628906 291.808594 160.359375 C 292.953125 148.089844 316.1875 176.1875 316.1875 176.1875 Z M 316.1875 176.1875 " fill-opacity="1" fill-rule="nonzero"/><path fill="#30241b" d="M 290.878906 167.914062 L 314.796875 183.714844 C 314.796875 183.714844 302.363281 199.730469 285.304688 196.4375 C 285.304688 196.445312 289.207031 179.289062 290.878906 167.914062 Z M 290.878906 167.914062 " fill-opacity="1" fill-rule="nonzero"/><path fill="#f1baa4" d="M 285.882812 126.417969 C 285.882812 126.417969 271.367188 154.539062 281.6875 173.617188 C 291.113281 191.03125 308.847656 192.707031 325.757812 176.003906 C 325.757812 176.003906 330.382812 179.734375 335.414062 173.816406 C 340.449219 167.894531 342.957031 158.589844 330.140625 161.128906 C 330.140625 161.128906 336.789062 146.371094 332.453125 133.742188 C 328.542969 122.289062 291.800781 118.871094 285.882812 126.417969 Z M 285.882812 126.417969 " fill-opacity="1" fill-rule="nonzero"/><path fill="#30241b" d="M 311.703125 154.617188 C 311.113281 156.871094 311.925781 159.023438 313.503906 159.421875 C 315.082031 159.820312 316.835938 158.3125 317.425781 156.050781 C 318.015625 153.792969 317.199219 151.652344 315.621094 151.253906 C 314.042969 150.855469 312.285156 152.363281 311.703125 154.617188 Z M 311.703125 154.617188 " fill-opacity="1" fill-rule="nonzero"/><path fill="#30241b" d="M 294.773438 148.113281 C 295.164062 148.148438 295.527344 148.289062 295.867188 148.535156 C 296.207031 148.78125 296.496094 149.113281 296.738281 149.535156 C 296.976562 149.953125 297.144531 150.425781 297.246094 150.953125 C 297.347656 151.484375 297.371094 152.023438 297.320312 152.582031 C 297.269531 153.136719 297.144531 153.667969 296.949219 154.167969 C 296.75 154.667969 296.496094 155.101562 296.183594 155.46875 C 295.875 155.835938 295.527344 156.109375 295.148438 156.289062 C 294.769531 156.46875 294.382812 156.542969 293.992188 156.503906 C 293.605469 156.46875 293.238281 156.328125 292.898438 156.082031 C 292.558594 155.835938 292.269531 155.503906 292.03125 155.082031 C 291.792969 154.664062 291.621094 154.191406 291.519531 153.664062 C 291.421875 153.132812 291.394531 152.59375 291.445312 152.035156 C 291.5 151.480469 291.621094 150.949219 291.820312 150.449219 C 292.015625 149.949219 292.269531 149.515625 292.582031 149.148438 C 292.894531 148.78125 293.242188 148.507812 293.621094 148.328125 C 294 148.148438 294.382812 148.074219 294.773438 148.113281 Z M 294.773438 148.113281 " fill-opacity="1" fill-rule="nonzero"/><path fill="#30241b" d="M 305.527344 154.125 C 304.511719 155.449219 303.421875 156.707031 302.257812 157.898438 C 301.742188 158.402344 301.171875 158.835938 300.550781 159.199219 C 298.917969 160.574219 300.921875 162.578125 301.972656 163.644531 C 302.277344 163.941406 302.597656 164.234375 302.875 164.554688 C 302.976562 164.652344 303.046875 164.769531 303.082031 164.910156 C 303.105469 164.757812 303.085938 164.617188 303.019531 164.480469 C 302.554688 163.601562 302.042969 162.75 301.488281 161.921875 C 301.214844 161.511719 301.03125 161.0625 300.941406 160.574219 C 300.90625 160.304688 301.007812 160.105469 301.25 159.976562 L 301.609375 159.753906 C 302.546875 159.050781 303.347656 158.21875 304.011719 157.257812 C 304.679688 156.292969 305.171875 155.25 305.5 154.125 Z M 305.527344 154.125 " fill-opacity="1" fill-rule="nonzero"/><path fill="#30241b" d="M 284.886719 144.097656 C 286.179688 143.605469 287.503906 143.214844 288.859375 142.921875 C 290.179688 142.613281 291.515625 142.492188 292.867188 142.5625 C 294.136719 142.667969 295.367188 142.945312 296.558594 143.394531 C 297.859375 143.828125 299.160156 144.332031 300.53125 144.816406 L 300.628906 144.671875 C 300.128906 144.152344 299.585938 143.679688 299.003906 143.25 C 297.261719 142.015625 295.070312 140.75 292.824219 140.8125 C 290.625 141.121094 288.542969 141.804688 286.585938 142.859375 C 285.964844 143.1875 285.367188 143.554688 284.792969 143.960938 L 284.886719 144.109375 Z M 284.886719 144.097656 " fill-opacity="1" fill-rule="nonzero"/><path fill="#30241b" d="M 327.769531 151.859375 C 326.390625 149.226562 324.476562 147.066406 322.03125 145.375 C 320.070312 144.34375 317.597656 144.480469 315.484375 144.777344 C 314.761719 144.894531 314.050781 145.0625 313.351562 145.285156 L 313.351562 145.453125 C 314.773438 145.675781 316.195312 145.824219 317.53125 146.03125 C 318.796875 146.167969 320.019531 146.480469 321.199219 146.960938 C 322.429688 147.507812 323.558594 148.21875 324.582031 149.09375 C 325.652344 149.960938 326.644531 150.910156 327.5625 151.9375 L 327.71875 151.84375 Z M 327.769531 151.859375 " fill-opacity="1" fill-rule="nonzero"/><path fill="#f1baa4" d="M 278.964844 166.394531 C 278.964844 166.394531 273.371094 168.382812 270.578125 161.132812 C 267.785156 153.882812 268.496094 144.273438 279.746094 150.90625 " fill-opacity="1" fill-rule="nonzero"/><path fill="#30241b" d="M 313.375 133.585938 C 313.542969 133.804688 313.742188 133.984375 313.984375 134.121094 C 314.222656 134.261719 314.476562 134.347656 314.75 134.382812 C 315.023438 134.421875 315.292969 134.402344 315.558594 134.332031 C 315.828125 134.261719 316.070312 134.144531 316.289062 133.976562 C 316.546875 133.769531 316.828125 133.609375 317.140625 133.496094 C 317.449219 133.386719 317.769531 133.328125 318.097656 133.320312 C 318.429688 133.3125 318.75 133.359375 319.066406 133.460938 C 319.378906 133.558594 319.667969 133.707031 319.933594 133.902344 C 328.542969 139.0625 321.136719 159.683594 330.007812 161.191406 L 337.363281 147.75 L 334.882812 129.050781 L 323.234375 121.671875 L 303.046875 120.035156 L 286.457031 123.214844 C 286.457031 123.214844 277.386719 139.105469 278.523438 150.222656 C 278.523438 150.222656 285.726562 149.777344 288.9375 140.128906 C 291.875 131.210938 306.949219 125.269531 313.375 133.585938 Z M 313.375 133.585938 " fill-opacity="1" fill-rule="nonzero"/><path fill="#ffde7b" d="M 286.449219 189.949219 C 286.449219 189.949219 293.636719 211.316406 312.664062 196.800781 C 312.664062 196.800781 332.984375 201.535156 336.757812 204.96875 C 339.601562 207.570312 323.472656 299.703125 309.976562 330.976562 C 309.976562 330.976562 242.34375 346.421875 248.066406 288.683594 C 248.066406 288.683594 244.394531 194.789062 249.21875 192.308594 C 254.046875 189.828125 286.449219 189.949219 286.449219 189.949219 Z M 286.449219 189.949219 " fill-opacity="1" fill-rule="nonzero"/><path fill="#30241b" d="M 291.289062 333.527344 L 290.933594 333.527344 C 281.113281 333.492188 267.4375 331.707031 258.066406 323.449219 C 249.453125 315.851562 245.855469 304.144531 247.40625 288.65625 C 247.363281 287.453125 246.480469 264.441406 246.175781 241.425781 C 245.535156 193.433594 247.917969 192.214844 248.933594 191.667969 C 253.851562 189.144531 285.148438 189.230469 286.476562 189.230469 C 286.800781 189.242188 287.015625 189.398438 287.125 189.699219 C 287.125 189.785156 290.179688 198.519531 297.191406 200.660156 C 301.582031 202.003906 306.65625 200.511719 312.273438 196.226562 C 312.421875 196.160156 312.574219 196.148438 312.734375 196.191406 C 312.890625 196.230469 313.019531 196.316406 313.117188 196.445312 C 313.21875 196.574219 313.265625 196.722656 313.265625 196.882812 C 313.265625 197.046875 313.210938 197.191406 313.109375 197.320312 C 307.121094 201.890625 301.625 203.453125 296.761719 201.976562 C 289.976562 199.894531 286.734375 192.558594 285.980469 190.601562 C 274.695312 190.601562 253.199219 191.023438 249.546875 192.890625 C 249.246094 193.125 248.167969 195.023438 247.683594 208.921875 C 247.40625 217.042969 247.355469 228.113281 247.542969 241.824219 C 247.859375 265.179688 248.757812 288.398438 248.769531 288.628906 C 248.773438 288.660156 248.773438 288.6875 248.769531 288.71875 C 247.277344 303.765625 250.71875 315.097656 259 322.398438 C 276.347656 337.691406 309.515625 330.351562 309.847656 330.28125 C 310.03125 330.246094 310.199219 330.277344 310.359375 330.375 C 310.515625 330.472656 310.617188 330.613281 310.667969 330.792969 C 310.703125 330.976562 310.671875 331.144531 310.574219 331.304688 C 310.472656 331.464844 310.335938 331.566406 310.15625 331.617188 C 303.929688 332.882812 297.640625 333.523438 291.289062 333.527344 Z M 291.289062 333.527344 " fill-opacity="1" fill-rule="nonzero"/><path fill="#30241b" d="M 356.328125 193.191406 C 356.203125 193.171875 356.09375 193.128906 355.996094 193.050781 C 355.898438 192.976562 355.824219 192.882812 355.777344 192.769531 C 355.726562 192.65625 355.707031 192.539062 355.71875 192.417969 C 355.730469 192.292969 355.773438 192.183594 355.84375 192.082031 C 369.640625 176.316406 345.957031 127.4375 345.714844 126.945312 C 341.941406 119.652344 337.578125 115.21875 332.757812 113.78125 C 331.496094 113.378906 330.207031 113.21875 328.886719 113.304688 C 327.566406 113.390625 326.308594 113.710938 325.109375 114.273438 C 324.949219 114.324219 324.792969 114.324219 324.636719 114.265625 C 324.480469 114.207031 324.359375 114.105469 324.273438 113.960938 C 324.1875 113.816406 324.15625 113.664062 324.179688 113.496094 C 324.203125 113.332031 324.277344 113.191406 324.398438 113.078125 C 325.753906 112.414062 327.179688 112.023438 328.6875 111.914062 C 330.191406 111.800781 331.660156 111.972656 333.097656 112.429688 C 338.300781 113.960938 342.957031 118.628906 346.921875 126.296875 C 351.054688 135.03125 354.523438 144.015625 357.335938 153.257812 C 363.101562 172.65625 362.945312 186.011719 356.859375 192.957031 C 356.71875 193.113281 356.539062 193.191406 356.328125 193.191406 Z M 356.328125 193.191406 " fill-opacity="1" fill-rule="nonzero"/><path fill="#30241b" d="M 304.5625 172.550781 C 303.023438 172.539062 301.601562 172.121094 300.296875 171.304688 C 300.191406 171.183594 300.136719 171.039062 300.132812 170.878906 C 300.125 170.71875 300.167969 170.574219 300.261719 170.441406 C 300.351562 170.308594 300.476562 170.21875 300.628906 170.171875 C 300.78125 170.125 300.933594 170.128906 301.085938 170.183594 C 301.277344 170.316406 305.546875 173.210938 309.925781 168.570312 C 309.980469 168.472656 310.050781 168.390625 310.140625 168.328125 C 310.230469 168.261719 310.332031 168.222656 310.441406 168.207031 C 310.550781 168.1875 310.65625 168.195312 310.761719 168.230469 C 310.867188 168.261719 310.960938 168.316406 311.042969 168.390625 C 311.121094 168.46875 311.179688 168.558594 311.21875 168.660156 C 311.257812 168.765625 311.269531 168.871094 311.257812 168.984375 C 311.246094 169.09375 311.210938 169.195312 311.152344 169.289062 C 311.09375 169.382812 311.015625 169.457031 310.921875 169.515625 C 308.667969 171.875 306.414062 172.550781 304.5625 172.550781 Z M 304.5625 172.550781 " fill-opacity="1" fill-rule="nonzero"/><path fill="#ffffff" d="M 272.050781 326.632812 C 272.054688 327.28125 271.996094 327.925781 271.871094 328.566406 C 271.75 329.203125 271.566406 329.824219 271.320312 330.425781 C 271.078125 331.027344 270.777344 331.601562 270.417969 332.144531 C 270.058594 332.6875 269.652344 333.1875 269.195312 333.648438 C 268.738281 334.113281 268.242188 334.527344 267.703125 334.890625 C 267.164062 335.253906 266.59375 335.5625 265.996094 335.8125 C 265.398438 336.066406 264.777344 336.253906 264.140625 336.386719 C 263.503906 336.515625 262.863281 336.582031 262.210938 336.585938 L 62.652344 337.082031 C 62.003906 337.085938 61.359375 337.027344 60.722656 336.90625 C 60.085938 336.78125 59.464844 336.597656 58.863281 336.355469 C 58.261719 336.109375 57.691406 335.808594 57.148438 335.453125 C 56.605469 335.09375 56.105469 334.6875 55.640625 334.230469 C 55.179688 333.773438 54.765625 333.277344 54.402344 332.742188 C 54.039062 332.203125 53.730469 331.636719 53.476562 331.039062 C 53.226562 330.4375 53.035156 329.824219 52.902344 329.1875 C 52.773438 328.550781 52.707031 327.90625 52.699219 327.257812 L 52.652344 317.238281 L 51.515625 115.6875 L 51.441406 102.222656 C 51.4375 101.574219 51.5 100.929688 51.621094 100.292969 C 51.746094 99.652344 51.929688 99.035156 52.175781 98.433594 C 52.421875 97.828125 52.722656 97.257812 53.082031 96.714844 C 53.4375 96.171875 53.847656 95.671875 54.304688 95.207031 C 54.761719 94.746094 55.257812 94.332031 55.796875 93.96875 C 56.335938 93.605469 56.902344 93.296875 57.503906 93.046875 C 58.101562 92.792969 58.71875 92.601562 59.355469 92.472656 C 59.992188 92.34375 60.636719 92.277344 61.289062 92.273438 L 89.128906 92.144531 L 98.957031 91.980469 L 223.589844 91.980469 L 237.09375 91.875 L 260.867188 91.769531 C 261.519531 91.765625 262.160156 91.824219 262.800781 91.945312 C 263.4375 92.066406 264.058594 92.25 264.660156 92.496094 C 265.261719 92.738281 265.832031 93.042969 266.375 93.398438 C 266.917969 93.757812 267.421875 94.164062 267.882812 94.621094 C 268.34375 95.074219 268.757812 95.574219 269.121094 96.113281 C 269.488281 96.648438 269.792969 97.21875 270.046875 97.816406 C 270.296875 98.414062 270.488281 99.03125 270.621094 99.667969 C 270.75 100.304688 270.816406 100.949219 270.820312 101.597656 L 270.890625 115.671875 L 271.972656 317.222656 Z M 272.050781 326.632812 " fill-opacity="1" fill-rule="nonzero"/><path fill="#ffde7b" d="M 71.890625 96.125 L 250.371094 96.125 C 251.039062 96.125 251.707031 96.160156 252.375 96.222656 C 253.039062 96.289062 253.703125 96.386719 254.359375 96.519531 C 255.015625 96.648438 255.664062 96.8125 256.304688 97.007812 C 256.945312 97.199219 257.574219 97.425781 258.191406 97.683594 C 258.8125 97.9375 259.417969 98.222656 260.007812 98.539062 C 260.597656 98.855469 261.171875 99.199219 261.726562 99.570312 C 262.285156 99.941406 262.820312 100.339844 263.339844 100.765625 C 263.855469 101.191406 264.351562 101.640625 264.824219 102.113281 C 265.296875 102.585938 265.746094 103.082031 266.171875 103.597656 C 266.597656 104.117188 266.996094 104.652344 267.367188 105.210938 C 267.738281 105.765625 268.082031 106.339844 268.398438 106.929688 C 268.714844 107.523438 269 108.125 269.257812 108.746094 C 269.511719 109.363281 269.738281 109.992188 269.933594 110.632812 C 270.125 111.273438 270.289062 111.921875 270.417969 112.578125 C 270.550781 113.238281 270.648438 113.898438 270.714844 114.5625 C 270.78125 115.230469 270.8125 115.898438 270.8125 116.566406 L 270.8125 123.769531 L 51.441406 123.769531 L 51.441406 116.5625 C 51.441406 115.890625 51.476562 115.222656 51.542969 114.558594 C 51.609375 113.890625 51.707031 113.230469 51.835938 112.574219 C 51.96875 111.917969 52.128906 111.269531 52.324219 110.628906 C 52.519531 109.988281 52.746094 109.355469 53 108.738281 C 53.257812 108.121094 53.542969 107.515625 53.859375 106.925781 C 54.175781 106.335938 54.519531 105.761719 54.890625 105.203125 C 55.265625 104.648438 55.664062 104.113281 56.085938 103.59375 C 56.511719 103.078125 56.960938 102.582031 57.433594 102.109375 C 57.910156 101.636719 58.40625 101.1875 58.921875 100.761719 C 59.441406 100.335938 59.976562 99.9375 60.535156 99.566406 C 61.089844 99.195312 61.664062 98.851562 62.253906 98.535156 C 62.84375 98.222656 63.449219 97.933594 64.070312 97.679688 C 64.6875 97.421875 65.316406 97.199219 65.957031 97.003906 C 66.597656 96.808594 67.246094 96.648438 67.902344 96.515625 C 68.5625 96.386719 69.222656 96.289062 69.886719 96.222656 C 70.554688 96.15625 71.222656 96.125 71.890625 96.125 Z M 71.890625 96.125 " fill-opacity="1" fill-rule="nonzero"/><path fill="#30241b" d="M 270.8125 124.449219 L 51.441406 124.449219 C 51.289062 124.410156 51.160156 124.324219 51.066406 124.195312 C 50.96875 124.070312 50.917969 123.925781 50.917969 123.765625 C 50.917969 123.605469 50.96875 123.460938 51.066406 123.332031 C 51.160156 123.207031 51.289062 123.121094 51.441406 123.078125 L 270.8125 123.078125 C 270.917969 123.050781 271.027344 123.046875 271.136719 123.066406 C 271.246094 123.089844 271.34375 123.132812 271.429688 123.199219 C 271.519531 123.265625 271.585938 123.351562 271.636719 123.449219 C 271.683594 123.550781 271.710938 123.652344 271.710938 123.765625 C 271.710938 123.875 271.683594 123.980469 271.636719 124.078125 C 271.585938 124.179688 271.519531 124.261719 271.429688 124.328125 C 271.34375 124.398438 271.246094 124.441406 271.136719 124.460938 C 271.027344 124.484375 270.917969 124.480469 270.8125 124.449219 Z M 270.8125 124.449219 " fill-opacity="1" fill-rule="nonzero"/><path fill="#ffffff" d="M 77.386719 107.554688 C 77.386719 108.015625 77.339844 108.476562 77.25 108.929688 C 77.160156 109.382812 77.027344 109.820312 76.851562 110.246094 C 76.675781 110.675781 76.457031 111.082031 76.199219 111.464844 C 75.945312 111.847656 75.652344 112.203125 75.324219 112.53125 C 75 112.859375 74.644531 113.148438 74.257812 113.40625 C 73.875 113.664062 73.46875 113.878906 73.042969 114.054688 C 72.617188 114.234375 72.175781 114.367188 71.722656 114.457031 C 71.269531 114.546875 70.8125 114.59375 70.351562 114.59375 C 69.886719 114.59375 69.429688 114.546875 68.976562 114.457031 C 68.523438 114.367188 68.082031 114.234375 67.65625 114.054688 C 67.230469 113.878906 66.824219 113.664062 66.441406 113.40625 C 66.054688 113.148438 65.699219 112.859375 65.375 112.53125 C 65.046875 112.203125 64.753906 111.847656 64.5 111.464844 C 64.242188 111.082031 64.027344 110.675781 63.847656 110.246094 C 63.671875 109.820312 63.539062 109.382812 63.449219 108.929688 C 63.359375 108.476562 63.3125 108.015625 63.3125 107.554688 C 63.3125 107.09375 63.359375 106.636719 63.449219 106.183594 C 63.539062 105.730469 63.671875 105.289062 63.847656 104.863281 C 64.027344 104.433594 64.242188 104.03125 64.5 103.644531 C 64.753906 103.261719 65.046875 102.90625 65.375 102.578125 C 65.699219 102.253906 66.054688 101.960938 66.441406 101.703125 C 66.824219 101.449219 67.230469 101.230469 67.65625 101.054688 C 68.082031 100.878906 68.523438 100.742188 68.976562 100.652344 C 69.429688 100.5625 69.886719 100.519531 70.351562 100.519531 C 70.8125 100.519531 71.269531 100.5625 71.722656 100.652344 C 72.175781 100.742188 72.617188 100.878906 73.042969 101.054688 C 73.46875 101.230469 73.875 101.449219 74.257812 101.703125 C 74.644531 101.960938 75 102.253906 75.324219 102.578125 C 75.652344 102.90625 75.945312 103.261719 76.199219 103.644531 C 76.457031 104.03125 76.675781 104.433594 76.851562 104.863281 C 77.027344 105.289062 77.160156 105.730469 77.25 106.183594 C 77.339844 106.636719 77.386719 107.09375 77.386719 107.554688 Z M 77.386719 107.554688 " fill-opacity="1" fill-rule="nonzero"/><path fill="#ffffff" d="M 100.34375 107.554688 C 100.34375 108.015625 100.300781 108.476562 100.210938 108.929688 C 100.121094 109.382812 99.984375 109.820312 99.808594 110.246094 C 99.632812 110.675781 99.414062 111.082031 99.160156 111.464844 C 98.902344 111.847656 98.609375 112.203125 98.285156 112.53125 C 97.957031 112.859375 97.601562 113.148438 97.21875 113.40625 C 96.832031 113.664062 96.429688 113.878906 96 114.054688 C 95.574219 114.234375 95.132812 114.367188 94.679688 114.457031 C 94.226562 114.546875 93.769531 114.59375 93.308594 114.59375 C 92.847656 114.59375 92.386719 114.546875 91.933594 114.457031 C 91.480469 114.367188 91.042969 114.234375 90.617188 114.054688 C 90.1875 113.878906 89.78125 113.664062 89.398438 113.40625 C 89.015625 113.148438 88.660156 112.859375 88.332031 112.53125 C 88.003906 112.203125 87.714844 111.847656 87.457031 111.464844 C 87.199219 111.082031 86.984375 110.675781 86.808594 110.246094 C 86.628906 109.820312 86.496094 109.382812 86.40625 108.929688 C 86.316406 108.476562 86.269531 108.015625 86.269531 107.554688 C 86.269531 107.09375 86.316406 106.636719 86.40625 106.183594 C 86.496094 105.730469 86.628906 105.289062 86.808594 104.863281 C 86.984375 104.433594 87.199219 104.03125 87.457031 103.644531 C 87.714844 103.261719 88.003906 102.90625 88.332031 102.578125 C 88.660156 102.253906 89.015625 101.960938 89.398438 101.703125 C 89.78125 101.449219 90.1875 101.230469 90.617188 101.054688 C 91.042969 100.878906 91.480469 100.742188 91.933594 100.652344 C 92.386719 100.5625 92.847656 100.519531 93.308594 100.519531 C 93.769531 100.519531 94.226562 100.5625 94.679688 100.652344 C 95.132812 100.742188 95.574219 100.878906 96 101.054688 C 96.429688 101.230469 96.832031 101.449219 97.21875 101.703125 C 97.601562 101.960938 97.957031 102.253906 98.285156 102.578125 C 98.609375 102.90625 98.902344 103.261719 99.160156 103.644531 C 99.414062 104.03125 99.632812 104.433594 99.808594 104.863281 C 99.984375 105.289062 100.121094 105.730469 100.210938 106.183594 C 100.300781 106.636719 100.34375 107.09375 100.34375 107.554688 Z M 100.34375 107.554688 " fill-opacity="1" fill-rule="nonzero"/><path fill="#ffffff" d="M 122.96875 107.554688 C 122.96875 108.015625 122.925781 108.476562 122.832031 108.929688 C 122.742188 109.382812 122.609375 109.820312 122.433594 110.246094 C 122.257812 110.675781 122.039062 111.082031 121.785156 111.464844 C 121.527344 111.847656 121.234375 112.203125 120.90625 112.53125 C 120.582031 112.859375 120.226562 113.148438 119.84375 113.40625 C 119.457031 113.664062 119.050781 113.878906 118.625 114.054688 C 118.199219 114.234375 117.757812 114.367188 117.304688 114.457031 C 116.851562 114.546875 116.394531 114.59375 115.933594 114.59375 C 115.46875 114.59375 115.011719 114.546875 114.558594 114.457031 C 114.105469 114.367188 113.667969 114.234375 113.238281 114.054688 C 112.8125 113.878906 112.40625 113.664062 112.023438 113.40625 C 111.640625 113.148438 111.285156 112.859375 110.957031 112.53125 C 110.628906 112.203125 110.339844 111.847656 110.082031 111.464844 C 109.824219 111.082031 109.609375 110.675781 109.429688 110.246094 C 109.253906 109.820312 109.121094 109.382812 109.03125 108.929688 C 108.941406 108.476562 108.894531 108.015625 108.894531 107.554688 C 108.894531 107.09375 108.941406 106.636719 109.03125 106.183594 C 109.121094 105.730469 109.253906 105.289062 109.429688 104.863281 C 109.609375 104.433594 109.824219 104.03125 110.082031 103.644531 C 110.339844 103.261719 110.628906 102.90625 110.957031 102.578125 C 111.285156 102.253906 111.640625 101.960938 112.023438 101.703125 C 112.40625 101.449219 112.8125 101.230469 113.238281 101.054688 C 113.667969 100.878906 114.105469 100.742188 114.558594 100.652344 C 115.011719 100.5625 115.46875 100.519531 115.933594 100.519531 C 116.394531 100.519531 116.851562 100.5625 117.304688 100.652344 C 117.757812 100.742188 118.199219 100.878906 118.625 101.054688 C 119.050781 101.230469 119.457031 101.449219 119.84375 101.703125 C 120.226562 101.960938 120.582031 102.253906 120.90625 102.578125 C 121.234375 102.90625 121.527344 103.261719 121.785156 103.644531 C 122.039062 104.03125 122.257812 104.433594 122.433594 104.863281 C 122.609375 105.289062 122.742188 105.730469 122.832031 106.183594 C 122.925781 106.636719 122.96875 107.09375 122.96875 107.554688 Z M 122.96875 107.554688 " fill-opacity="1" fill-rule="nonzero"/><path fill="#30241b" d="M 62.609375 337.792969 C 61.917969 337.792969 61.234375 337.722656 60.554688 337.589844 C 59.878906 337.453125 59.21875 337.253906 58.578125 336.988281 C 57.941406 336.726562 57.332031 336.402344 56.757812 336.019531 C 56.183594 335.636719 55.648438 335.199219 55.160156 334.714844 C 54.667969 334.226562 54.230469 333.695312 53.84375 333.121094 C 53.457031 332.546875 53.132812 331.941406 52.863281 331.304688 C 52.597656 330.667969 52.394531 330.011719 52.253906 329.332031 C 52.117188 328.65625 52.042969 327.972656 52.039062 327.28125 L 51.984375 317.265625 L 50.824219 115.695312 L 50.761719 102.230469 C 50.753906 101.535156 50.816406 100.84375 50.945312 100.160156 C 51.074219 99.476562 51.269531 98.8125 51.53125 98.167969 C 51.789062 97.523438 52.113281 96.910156 52.496094 96.328125 C 52.878906 95.746094 53.3125 95.207031 53.800781 94.710938 C 54.289062 94.214844 54.824219 93.773438 55.398438 93.382812 C 55.976562 92.992188 56.585938 92.664062 57.226562 92.394531 C 57.867188 92.125 58.53125 91.917969 59.210938 91.78125 C 59.894531 91.640625 60.585938 91.570312 61.28125 91.570312 L 89.121094 91.441406 L 237.0625 91.171875 L 260.839844 91.066406 L 260.890625 91.066406 C 261.582031 91.066406 262.265625 91.132812 262.945312 91.269531 C 263.621094 91.402344 264.28125 91.605469 264.917969 91.867188 C 265.558594 92.132812 266.164062 92.457031 266.742188 92.839844 C 267.316406 93.222656 267.847656 93.65625 268.339844 94.144531 C 268.828125 94.632812 269.269531 95.164062 269.652344 95.734375 C 270.039062 96.308594 270.367188 96.914062 270.636719 97.550781 C 270.902344 98.191406 271.105469 98.847656 271.246094 99.523438 C 271.382812 100.203125 271.453125 100.886719 271.460938 101.578125 L 271.53125 115.652344 L 272.683594 317.214844 L 272.730469 326.625 C 272.734375 327.320312 272.667969 328.007812 272.535156 328.691406 C 272.40625 329.371094 272.207031 330.035156 271.945312 330.675781 C 271.679688 331.320312 271.359375 331.929688 270.976562 332.507812 C 270.589844 333.089844 270.15625 333.625 269.667969 334.117188 C 269.179688 334.609375 268.644531 335.050781 268.070312 335.441406 C 267.496094 335.828125 266.886719 336.15625 266.246094 336.425781 C 265.605469 336.695312 264.945312 336.898438 264.265625 337.039062 C 263.585938 337.175781 262.898438 337.25 262.203125 337.253906 L 62.652344 337.792969 Z M 260.917969 92.507812 L 260.875 92.507812 L 237.070312 92.570312 L 89.128906 92.84375 L 61.289062 92.96875 C 60.683594 92.972656 60.085938 93.035156 59.492188 93.15625 C 58.902344 93.277344 58.328125 93.453125 57.769531 93.6875 C 57.214844 93.921875 56.683594 94.207031 56.183594 94.542969 C 55.683594 94.882812 55.222656 95.265625 54.796875 95.695312 C 54.371094 96.121094 53.992188 96.589844 53.660156 97.09375 C 53.324219 97.597656 53.042969 98.128906 52.816406 98.6875 C 52.585938 99.246094 52.414062 99.820312 52.300781 100.414062 C 52.1875 101.007812 52.128906 101.605469 52.132812 102.210938 L 52.195312 115.671875 L 53.363281 317.203125 L 53.410156 327.222656 C 53.417969 327.824219 53.480469 328.417969 53.605469 329.007812 C 53.726562 329.597656 53.902344 330.167969 54.136719 330.722656 C 54.371094 331.273438 54.65625 331.800781 54.992188 332.300781 C 55.328125 332.796875 55.710938 333.257812 56.136719 333.683594 C 56.5625 334.105469 57.023438 334.484375 57.523438 334.820312 C 58.023438 335.152344 58.550781 335.433594 59.109375 335.664062 C 59.664062 335.894531 60.234375 336.070312 60.824219 336.1875 C 61.414062 336.308594 62.007812 336.367188 62.609375 336.371094 L 62.652344 336.371094 L 262.210938 335.867188 C 262.816406 335.859375 263.410156 335.796875 264.003906 335.675781 C 264.59375 335.550781 265.167969 335.375 265.722656 335.140625 C 266.277344 334.902344 266.804688 334.617188 267.304688 334.28125 C 267.804688 333.941406 268.265625 333.558594 268.691406 333.128906 C 269.117188 332.703125 269.496094 332.234375 269.828125 331.734375 C 270.160156 331.230469 270.441406 330.699219 270.671875 330.144531 C 270.902344 329.585938 271.074219 329.011719 271.191406 328.417969 C 271.308594 327.828125 271.367188 327.230469 271.367188 326.625 L 271.316406 317.222656 L 270.160156 115.6875 L 270.085938 101.613281 C 270.082031 101.011719 270.015625 100.417969 269.894531 99.828125 C 269.773438 99.242188 269.59375 98.671875 269.359375 98.117188 C 269.125 97.5625 268.839844 97.039062 268.503906 96.539062 C 268.167969 96.042969 267.789062 95.582031 267.363281 95.160156 C 266.933594 94.734375 266.472656 94.355469 265.972656 94.023438 C 265.472656 93.691406 264.945312 93.410156 264.390625 93.179688 C 263.835938 92.949219 263.261719 92.773438 262.675781 92.65625 C 262.085938 92.535156 261.492188 92.476562 260.890625 92.472656 Z M 260.917969 92.507812 " fill-opacity="1" fill-rule="nonzero"/><path fill="#efe5dc" d="M 100.96875 142.789062 L 149.707031 142.789062 C 150.480469 142.789062 151.25 142.828125 152.019531 142.902344 C 152.789062 142.976562 153.550781 143.089844 154.308594 143.242188 C 155.066406 143.394531 155.816406 143.578125 156.554688 143.804688 C 157.292969 144.027344 158.019531 144.289062 158.734375 144.582031 C 159.449219 144.878906 160.144531 145.210938 160.828125 145.574219 C 161.507812 145.9375 162.167969 146.335938 162.8125 146.761719 C 163.453125 147.191406 164.074219 147.652344 164.671875 148.140625 C 165.265625 148.632812 165.839844 149.148438 166.386719 149.695312 C 166.929688 150.242188 167.449219 150.8125 167.941406 151.410156 C 168.429688 152.007812 168.890625 152.628906 169.316406 153.269531 C 169.746094 153.914062 170.144531 154.574219 170.507812 155.253906 C 170.871094 155.9375 171.203125 156.632812 171.496094 157.347656 C 171.792969 158.0625 172.054688 158.789062 172.277344 159.527344 C 172.5 160.265625 172.6875 161.015625 172.839844 161.773438 C 172.992188 162.527344 173.101562 163.292969 173.179688 164.0625 C 173.253906 164.828125 173.292969 165.601562 173.292969 166.371094 L 173.292969 168.917969 C 173.292969 169.691406 173.253906 170.460938 173.179688 171.230469 C 173.101562 171.996094 172.992188 172.761719 172.839844 173.519531 C 172.6875 174.277344 172.5 175.023438 172.277344 175.761719 C 172.054688 176.503906 171.792969 177.230469 171.496094 177.941406 C 171.203125 178.65625 170.871094 179.351562 170.507812 180.035156 C 170.144531 180.714844 169.746094 181.378906 169.316406 182.019531 C 168.890625 182.660156 168.429688 183.28125 167.941406 183.878906 C 167.449219 184.476562 166.929688 185.046875 166.386719 185.59375 C 165.839844 186.140625 165.265625 186.65625 164.671875 187.148438 C 164.074219 187.636719 163.453125 188.097656 162.8125 188.527344 C 162.167969 188.957031 161.507812 189.351562 160.828125 189.714844 C 160.144531 190.082031 159.449219 190.410156 158.734375 190.707031 C 158.019531 191 157.292969 191.261719 156.554688 191.484375 C 155.816406 191.710938 155.066406 191.898438 154.308594 192.046875 C 153.550781 192.199219 152.789062 192.3125 152.019531 192.386719 C 151.25 192.464844 150.480469 192.5 149.707031 192.5 L 100.96875 192.5 C 100.199219 192.5 99.425781 192.464844 98.660156 192.386719 C 97.890625 192.3125 97.128906 192.199219 96.371094 192.046875 C 95.613281 191.898438 94.863281 191.710938 94.125 191.484375 C 93.386719 191.261719 92.660156 191 91.945312 190.707031 C 91.230469 190.410156 90.535156 190.082031 89.851562 189.714844 C 89.171875 189.351562 88.511719 188.957031 87.867188 188.527344 C 87.226562 188.097656 86.605469 187.636719 86.007812 187.148438 C 85.410156 186.65625 84.839844 186.140625 84.292969 185.59375 C 83.746094 185.046875 83.230469 184.476562 82.738281 183.878906 C 82.25 183.28125 81.789062 182.660156 81.359375 182.019531 C 80.933594 181.378906 80.535156 180.714844 80.171875 180.035156 C 79.808594 179.351562 79.476562 178.65625 79.183594 177.941406 C 78.886719 177.230469 78.625 176.503906 78.402344 175.761719 C 78.179688 175.023438 77.992188 174.277344 77.839844 173.519531 C 77.6875 172.761719 77.574219 171.996094 77.5 171.230469 C 77.425781 170.460938 77.386719 169.691406 77.386719 168.917969 L 77.386719 166.371094 C 77.386719 165.601562 77.425781 164.828125 77.5 164.0625 C 77.574219 163.292969 77.6875 162.527344 77.839844 161.773438 C 77.992188 161.015625 78.179688 160.265625 78.402344 159.527344 C 78.625 158.789062 78.886719 158.0625 79.183594 157.347656 C 79.476562 156.632812 79.808594 155.9375 80.171875 155.253906 C 80.535156 154.574219 80.933594 153.914062 81.359375 153.269531 C 81.789062 152.628906 82.25 152.007812 82.738281 151.410156 C 83.230469 150.8125 83.746094 150.242188 84.292969 149.695312 C 84.839844 149.148438 85.410156 148.632812 86.007812 148.140625 C 86.605469 147.652344 87.226562 147.191406 87.867188 146.761719 C 88.511719 146.335938 89.171875 145.9375 89.851562 145.574219 C 90.535156 145.210938 91.230469 144.878906 91.945312 144.582031 C 92.660156 144.289062 93.386719 144.027344 94.125 143.804688 C 94.863281 143.578125 95.613281 143.394531 96.371094 143.242188 C 97.128906 143.089844 97.890625 142.976562 98.660156 142.902344 C 99.425781 142.828125 100.199219 142.789062 100.96875 142.789062 Z M 100.96875 142.789062 " fill-opacity="1" fill-rule="nonzero"/><path fill="#30241b" d="M 158.957031 156.042969 L 92.261719 156.042969 C 92.109375 156.003906 91.984375 155.917969 91.886719 155.789062 C 91.789062 155.664062 91.738281 155.519531 91.738281 155.359375 C 91.738281 155.199219 91.789062 155.054688 91.886719 154.925781 C 91.984375 154.800781 92.109375 154.714844 92.261719 154.671875 L 158.957031 154.671875 C 159.0625 154.644531 159.171875 154.640625 159.28125 154.660156 C 159.386719 154.683594 159.488281 154.726562 159.574219 154.792969 C 159.664062 154.863281 159.730469 154.945312 159.78125 155.042969 C 159.828125 155.144531 159.851562 155.25 159.851562 155.359375 C 159.851562 155.46875 159.828125 155.574219 159.78125 155.675781 C 159.730469 155.773438 159.664062 155.855469 159.574219 155.921875 C 159.488281 155.992188 159.386719 156.035156 159.28125 156.054688 C 159.171875 156.078125 159.0625 156.074219 158.957031 156.042969 Z M 158.957031 156.042969 " fill-opacity="1" fill-rule="nonzero"/><path fill="#30241b" d="M 158.957031 169.570312 L 92.261719 169.570312 C 92.109375 169.527344 91.984375 169.445312 91.886719 169.316406 C 91.789062 169.191406 91.738281 169.046875 91.738281 168.886719 C 91.738281 168.726562 91.789062 168.582031 91.886719 168.453125 C 91.984375 168.324219 92.109375 168.242188 92.261719 168.199219 L 158.957031 168.199219 C 159.0625 168.171875 159.171875 168.167969 159.28125 168.1875 C 159.386719 168.210938 159.488281 168.253906 159.574219 168.320312 C 159.664062 168.386719 159.730469 168.472656 159.78125 168.570312 C 159.828125 168.667969 159.851562 168.773438 159.851562 168.886719 C 159.851562 168.996094 159.828125 169.101562 159.78125 169.199219 C 159.730469 169.300781 159.664062 169.382812 159.574219 169.449219 C 159.488281 169.515625 159.386719 169.5625 159.28125 169.582031 C 159.171875 169.605469 159.0625 169.601562 158.957031 169.570312 Z M 158.957031 169.570312 " fill-opacity="1" fill-rule="nonzero"/><path fill="#30241b" d="M 158.957031 183.089844 L 92.261719 183.089844 C 92.109375 183.046875 91.984375 182.964844 91.886719 182.835938 C 91.789062 182.707031 91.738281 182.566406 91.738281 182.40625 C 91.738281 182.242188 91.789062 182.101562 91.886719 181.972656 C 91.984375 181.84375 92.109375 181.761719 92.261719 181.71875 L 158.957031 181.71875 C 159.0625 181.6875 159.171875 181.6875 159.28125 181.707031 C 159.386719 181.726562 159.488281 181.773438 159.574219 181.839844 C 159.664062 181.90625 159.730469 181.988281 159.78125 182.089844 C 159.828125 182.1875 159.851562 182.292969 159.851562 182.40625 C 159.851562 182.515625 159.828125 182.621094 159.78125 182.71875 C 159.730469 182.820312 159.664062 182.902344 159.574219 182.96875 C 159.488281 183.035156 159.386719 183.082031 159.28125 183.101562 C 159.171875 183.125 159.0625 183.121094 158.957031 183.089844 Z M 158.957031 183.089844 " fill-opacity="1" fill-rule="nonzero"/><path fill="#efe5dc" d="M 174.410156 212.347656 L 223.148438 212.347656 C 223.917969 212.347656 224.691406 212.382812 225.457031 212.460938 C 226.226562 212.535156 226.992188 212.648438 227.75 212.800781 C 228.503906 212.949219 229.253906 213.136719 229.992188 213.363281 C 230.730469 213.585938 231.457031 213.847656 232.171875 214.140625 C 232.886719 214.4375 233.582031 214.765625 234.265625 215.132812 C 234.945312 215.496094 235.609375 215.890625 236.25 216.320312 C 236.890625 216.75 237.511719 217.210938 238.109375 217.699219 C 238.707031 218.191406 239.277344 218.707031 239.824219 219.253906 C 240.371094 219.800781 240.886719 220.371094 241.378906 220.96875 C 241.867188 221.566406 242.328125 222.183594 242.757812 222.828125 C 243.1875 223.46875 243.582031 224.132812 243.945312 224.8125 C 244.308594 225.492188 244.640625 226.191406 244.9375 226.90625 C 245.230469 227.617188 245.492188 228.34375 245.714844 229.085938 C 245.941406 229.824219 246.128906 230.570312 246.277344 231.328125 C 246.429688 232.085938 246.542969 232.851562 246.617188 233.617188 C 246.691406 234.386719 246.730469 235.15625 246.730469 235.929688 L 246.730469 238.476562 C 246.730469 239.246094 246.691406 240.019531 246.617188 240.785156 C 246.542969 241.554688 246.429688 242.316406 246.277344 243.074219 C 246.128906 243.832031 245.941406 244.582031 245.714844 245.320312 C 245.492188 246.058594 245.230469 246.785156 244.9375 247.5 C 244.640625 248.214844 244.308594 248.910156 243.945312 249.59375 C 243.582031 250.273438 243.1875 250.933594 242.757812 251.578125 C 242.328125 252.21875 241.867188 252.839844 241.378906 253.4375 C 240.886719 254.03125 240.371094 254.605469 239.824219 255.152344 C 239.277344 255.695312 238.707031 256.214844 238.109375 256.707031 C 237.511719 257.195312 236.890625 257.65625 236.25 258.082031 C 235.609375 258.511719 234.945312 258.910156 234.265625 259.273438 C 233.582031 259.636719 232.886719 259.96875 232.171875 260.261719 C 231.457031 260.558594 230.730469 260.820312 229.992188 261.042969 C 229.253906 261.265625 228.503906 261.453125 227.75 261.605469 C 226.992188 261.757812 226.226562 261.871094 225.457031 261.945312 C 224.691406 262.019531 223.917969 262.058594 223.148438 262.058594 L 174.410156 262.058594 C 173.636719 262.058594 172.867188 262.019531 172.097656 261.945312 C 171.328125 261.871094 170.566406 261.757812 169.808594 261.605469 C 169.050781 261.453125 168.300781 261.265625 167.5625 261.042969 C 166.824219 260.820312 166.097656 260.558594 165.382812 260.261719 C 164.671875 259.96875 163.972656 259.636719 163.292969 259.273438 C 162.609375 258.910156 161.949219 258.511719 161.304688 258.082031 C 160.664062 257.65625 160.042969 257.195312 159.449219 256.707031 C 158.851562 256.214844 158.277344 255.695312 157.730469 255.152344 C 157.1875 254.605469 156.667969 254.03125 156.179688 253.4375 C 155.6875 252.839844 155.230469 252.21875 154.800781 251.578125 C 154.371094 250.933594 153.972656 250.273438 153.609375 249.59375 C 153.246094 248.910156 152.914062 248.214844 152.621094 247.5 C 152.324219 246.785156 152.066406 246.058594 151.839844 245.320312 C 151.617188 244.582031 151.429688 243.832031 151.277344 243.074219 C 151.128906 242.316406 151.015625 241.554688 150.9375 240.785156 C 150.863281 240.019531 150.824219 239.246094 150.824219 238.476562 L 150.824219 235.929688 C 150.824219 235.15625 150.863281 234.386719 150.9375 233.617188 C 151.015625 232.851562 151.128906 232.085938 151.277344 231.328125 C 151.429688 230.570312 151.617188 229.824219 151.839844 229.085938 C 152.066406 228.34375 152.324219 227.617188 152.621094 226.90625 C 152.914062 226.191406 153.246094 225.492188 153.609375 224.8125 C 153.972656 224.132812 154.371094 223.46875 154.800781 222.828125 C 155.230469 222.183594 155.6875 221.566406 156.179688 220.96875 C 156.667969 220.371094 157.1875 219.800781 157.730469 219.253906 C 158.277344 218.707031 158.851562 218.191406 159.449219 217.699219 C 160.042969 217.210938 160.664062 216.75 161.304688 216.320312 C 161.949219 215.890625 162.609375 215.496094 163.292969 215.132812 C 163.972656 214.765625 164.671875 214.4375 165.382812 214.140625 C 166.097656 213.847656 166.824219 213.585938 167.5625 213.363281 C 168.300781 213.136719 169.050781 212.949219 169.808594 212.800781 C 170.566406 212.648438 171.328125 212.535156 172.097656 212.460938 C 172.867188 212.382812 173.636719 212.347656 174.410156 212.347656 Z M 174.410156 212.347656 " fill-opacity="1" fill-rule="nonzero"/><path fill="#30241b" d="M 232.359375 225.601562 L 165.703125 225.601562 C 165.546875 225.558594 165.421875 225.476562 165.324219 225.347656 C 165.226562 225.222656 165.175781 225.078125 165.175781 224.917969 C 165.175781 224.757812 165.226562 224.613281 165.324219 224.484375 C 165.421875 224.355469 165.546875 224.273438 165.703125 224.230469 L 232.359375 224.230469 C 232.464844 224.203125 232.574219 224.199219 232.683594 224.21875 C 232.789062 224.238281 232.890625 224.285156 232.976562 224.351562 C 233.066406 224.417969 233.132812 224.503906 233.183594 224.601562 C 233.230469 224.699219 233.257812 224.804688 233.257812 224.917969 C 233.257812 225.027344 233.230469 225.132812 233.183594 225.230469 C 233.132812 225.332031 233.066406 225.414062 232.976562 225.480469 C 232.890625 225.546875 232.789062 225.59375 232.683594 225.613281 C 232.574219 225.636719 232.464844 225.632812 232.359375 225.601562 Z M 232.359375 225.601562 " fill-opacity="1" fill-rule="nonzero"/><path fill="#30241b" d="M 232.359375 239.121094 L 165.703125 239.121094 C 165.546875 239.078125 165.421875 238.996094 165.324219 238.867188 C 165.226562 238.738281 165.175781 238.597656 165.175781 238.4375 C 165.175781 238.273438 165.226562 238.132812 165.324219 238.003906 C 165.421875 237.875 165.546875 237.792969 165.703125 237.75 L 232.359375 237.75 C 232.464844 237.71875 232.574219 237.714844 232.683594 237.738281 C 232.789062 237.757812 232.890625 237.804688 232.976562 237.871094 C 233.066406 237.9375 233.132812 238.019531 233.183594 238.121094 C 233.230469 238.21875 233.257812 238.324219 233.257812 238.4375 C 233.257812 238.546875 233.230469 238.652344 233.183594 238.75 C 233.132812 238.851562 233.066406 238.933594 232.976562 239 C 232.890625 239.066406 232.789062 239.113281 232.683594 239.132812 C 232.574219 239.15625 232.464844 239.152344 232.359375 239.121094 Z M 232.359375 239.121094 " fill-opacity="1" fill-rule="nonzero"/><path fill="#30241b" d="M 232.359375 252.648438 L 165.703125 252.648438 C 165.546875 252.605469 165.421875 252.519531 165.324219 252.394531 C 165.226562 252.265625 165.175781 252.121094 165.175781 251.960938 C 165.175781 251.800781 165.226562 251.65625 165.324219 251.53125 C 165.421875 251.402344 165.546875 251.316406 165.703125 251.277344 L 232.359375 251.277344 C 232.464844 251.246094 232.574219 251.242188 232.683594 251.265625 C 232.789062 251.285156 232.890625 251.328125 232.976562 251.398438 C 233.066406 251.464844 233.132812 251.546875 233.183594 251.648438 C 233.230469 251.746094 233.257812 251.851562 233.257812 251.960938 C 233.257812 252.074219 233.230469 252.175781 233.183594 252.277344 C 233.132812 252.375 233.066406 252.460938 232.976562 252.527344 C 232.890625 252.59375 232.789062 252.636719 232.683594 252.660156 C 232.574219 252.679688 232.464844 252.675781 232.359375 252.648438 Z M 232.359375 252.648438 " fill-opacity="1" fill-rule="nonzero"/><path fill="#ffde7b" d="M 200.019531 147.046875 L 201.800781 147.046875 C 202.363281 147.046875 202.921875 147.101562 203.476562 147.210938 C 204.027344 147.320312 204.5625 147.484375 205.082031 147.699219 C 205.601562 147.914062 206.097656 148.179688 206.566406 148.492188 C 207.03125 148.804688 207.464844 149.160156 207.863281 149.558594 C 208.261719 149.953125 208.617188 150.386719 208.929688 150.855469 C 209.242188 151.324219 209.507812 151.816406 209.722656 152.339844 C 209.9375 152.859375 210.101562 153.394531 210.210938 153.945312 C 210.320312 154.5 210.375 155.054688 210.375 155.617188 L 210.375 157.402344 C 210.375 157.964844 210.320312 158.523438 210.210938 159.074219 C 210.101562 159.625 209.9375 160.164062 209.722656 160.683594 C 209.507812 161.203125 209.242188 161.695312 208.929688 162.164062 C 208.617188 162.632812 208.261719 163.066406 207.863281 163.464844 C 207.464844 163.863281 207.03125 164.21875 206.566406 164.53125 C 206.097656 164.84375 205.601562 165.105469 205.082031 165.320312 C 204.5625 165.539062 204.027344 165.699219 203.476562 165.808594 C 202.921875 165.917969 202.363281 165.972656 201.800781 165.972656 L 200.019531 165.972656 C 199.457031 165.972656 198.898438 165.917969 198.347656 165.808594 C 197.792969 165.699219 197.257812 165.539062 196.738281 165.320312 C 196.21875 165.105469 195.722656 164.84375 195.257812 164.53125 C 194.789062 164.21875 194.355469 163.863281 193.957031 163.464844 C 193.558594 163.066406 193.203125 162.632812 192.890625 162.164062 C 192.578125 161.695312 192.3125 161.203125 192.097656 160.683594 C 191.882812 160.164062 191.722656 159.625 191.609375 159.074219 C 191.5 158.523438 191.445312 157.964844 191.445312 157.402344 L 191.445312 155.617188 C 191.445312 155.054688 191.5 154.5 191.609375 153.945312 C 191.722656 153.394531 191.882812 152.859375 192.097656 152.339844 C 192.3125 151.816406 192.578125 151.324219 192.890625 150.855469 C 193.203125 150.386719 193.558594 149.953125 193.957031 149.558594 C 194.355469 149.160156 194.789062 148.804688 195.257812 148.492188 C 195.722656 148.179688 196.21875 147.914062 196.738281 147.699219 C 197.257812 147.484375 197.792969 147.320312 198.347656 147.210938 C 198.898438 147.101562 199.457031 147.046875 200.019531 147.046875 Z M 200.019531 147.046875 " fill-opacity="1" fill-rule="nonzero"/><path fill="#ffde7b" d="M 230.546875 147.046875 L 232.332031 147.046875 C 232.894531 147.046875 233.449219 147.101562 234.003906 147.210938 C 234.554688 147.320312 235.089844 147.484375 235.609375 147.699219 C 236.132812 147.914062 236.625 148.179688 237.09375 148.492188 C 237.5625 148.804688 237.992188 149.160156 238.390625 149.558594 C 238.789062 149.953125 239.144531 150.386719 239.457031 150.855469 C 239.769531 151.324219 240.035156 151.816406 240.25 152.339844 C 240.464844 152.859375 240.628906 153.394531 240.738281 153.945312 C 240.847656 154.5 240.902344 155.054688 240.902344 155.617188 L 240.902344 157.402344 C 240.902344 157.964844 240.847656 158.523438 240.738281 159.074219 C 240.628906 159.625 240.464844 160.164062 240.25 160.683594 C 240.035156 161.203125 239.769531 161.695312 239.457031 162.164062 C 239.144531 162.632812 238.789062 163.066406 238.390625 163.464844 C 237.992188 163.863281 237.5625 164.21875 237.09375 164.53125 C 236.625 164.84375 236.132812 165.105469 235.609375 165.320312 C 235.089844 165.539062 234.554688 165.699219 234.003906 165.808594 C 233.449219 165.917969 232.894531 165.972656 232.332031 165.972656 L 230.546875 165.972656 C 229.984375 165.972656 229.425781 165.917969 228.875 165.808594 C 228.320312 165.699219 227.785156 165.539062 227.265625 165.320312 C 226.746094 165.105469 226.253906 164.84375 225.785156 164.53125 C 225.316406 164.21875 224.882812 163.863281 224.484375 163.464844 C 224.085938 163.066406 223.730469 162.632812 223.417969 162.164062 C 223.105469 161.695312 222.84375 161.203125 222.625 160.683594 C 222.410156 160.164062 222.25 159.625 222.140625 159.074219 C 222.03125 158.523438 221.972656 157.964844 221.972656 157.402344 L 221.972656 155.617188 C 221.972656 155.054688 222.03125 154.5 222.140625 153.945312 C 222.25 153.394531 222.410156 152.859375 222.625 152.339844 C 222.84375 151.816406 223.105469 151.324219 223.417969 150.855469 C 223.730469 150.386719 224.085938 149.953125 224.484375 149.558594 C 224.882812 149.160156 225.316406 148.804688 225.785156 148.492188 C 226.253906 148.179688 226.746094 147.914062 227.265625 147.699219 C 227.785156 147.484375 228.320312 147.320312 228.875 147.210938 C 229.425781 147.101562 229.984375 147.046875 230.546875 147.046875 Z M 230.546875 147.046875 " fill-opacity="1" fill-rule="nonzero"/><path fill="#ffde7b" d="M 200.019531 172.941406 L 201.800781 172.941406 C 202.363281 172.941406 202.921875 172.996094 203.476562 173.105469 C 204.027344 173.214844 204.5625 173.378906 205.082031 173.59375 C 205.601562 173.808594 206.097656 174.070312 206.566406 174.386719 C 207.03125 174.699219 207.464844 175.054688 207.863281 175.449219 C 208.261719 175.847656 208.617188 176.28125 208.929688 176.75 C 209.242188 177.21875 209.507812 177.710938 209.722656 178.230469 C 209.9375 178.75 210.101562 179.289062 210.210938 179.839844 C 210.320312 180.390625 210.375 180.949219 210.375 181.511719 L 210.375 183.296875 C 210.375 183.859375 210.320312 184.417969 210.210938 184.96875 C 210.101562 185.519531 209.9375 186.058594 209.722656 186.578125 C 209.507812 187.097656 209.242188 187.589844 208.929688 188.058594 C 208.617188 188.527344 208.261719 188.960938 207.863281 189.359375 C 207.464844 189.753906 207.03125 190.109375 206.566406 190.421875 C 206.097656 190.738281 205.601562 191 205.082031 191.214844 C 204.5625 191.429688 204.027344 191.59375 203.476562 191.703125 C 202.921875 191.8125 202.363281 191.867188 201.800781 191.867188 L 200.019531 191.867188 C 199.457031 191.867188 198.898438 191.8125 198.347656 191.703125 C 197.792969 191.59375 197.257812 191.429688 196.738281 191.214844 C 196.21875 191 195.722656 190.738281 195.257812 190.421875 C 194.789062 190.109375 194.355469 189.753906 193.957031 189.359375 C 193.558594 188.960938 193.203125 188.527344 192.890625 188.058594 C 192.578125 187.589844 192.3125 187.097656 192.097656 186.578125 C 191.882812 186.058594 191.722656 185.519531 191.609375 184.96875 C 191.5 184.417969 191.445312 183.859375 191.445312 183.296875 L 191.445312 181.511719 C 191.445312 180.949219 191.5 180.390625 191.609375 179.839844 C 191.722656 179.289062 191.882812 178.75 192.097656 178.230469 C 192.3125 177.710938 192.578125 177.21875 192.890625 176.75 C 193.203125 176.28125 193.558594 175.847656 193.957031 175.449219 C 194.355469 175.054688 194.789062 174.699219 195.257812 174.386719 C 195.722656 174.070312 196.21875 173.808594 196.738281 173.59375 C 197.257812 173.378906 197.792969 173.214844 198.347656 173.105469 C 198.898438 172.996094 199.457031 172.941406 200.019531 172.941406 Z M 200.019531 172.941406 " fill-opacity="1" fill-rule="nonzero"/><path fill="#ffde7b" d="M 230.546875 172.941406 L 232.332031 172.941406 C 232.894531 172.941406 233.449219 172.996094 234.003906 173.105469 C 234.554688 173.214844 235.089844 173.378906 235.609375 173.59375 C 236.132812 173.808594 236.625 174.070312 237.09375 174.386719 C 237.5625 174.699219 237.992188 175.054688 238.390625 175.449219 C 238.789062 175.847656 239.144531 176.28125 239.457031 176.75 C 239.769531 177.21875 240.035156 177.710938 240.25 178.230469 C 240.464844 178.75 240.628906 179.289062 240.738281 179.839844 C 240.847656 180.390625 240.902344 180.949219 240.902344 181.511719 L 240.902344 183.296875 C 240.902344 183.859375 240.847656 184.417969 240.738281 184.96875 C 240.628906 185.519531 240.464844 186.058594 240.25 186.578125 C 240.035156 187.097656 239.769531 187.589844 239.457031 188.058594 C 239.144531 188.527344 238.789062 188.960938 238.390625 189.359375 C 237.992188 189.753906 237.5625 190.109375 237.09375 190.421875 C 236.625 190.738281 236.132812 191 235.609375 191.214844 C 235.089844 191.429688 234.554688 191.59375 234.003906 191.703125 C 233.449219 191.8125 232.894531 191.867188 232.332031 191.867188 L 230.546875 191.867188 C 229.984375 191.867188 229.425781 191.8125 228.875 191.703125 C 228.320312 191.59375 227.785156 191.429688 227.265625 191.214844 C 226.746094 191 226.253906 190.738281 225.785156 190.421875 C 225.316406 190.109375 224.882812 189.753906 224.484375 189.359375 C 224.085938 188.960938 223.730469 188.527344 223.417969 188.058594 C 223.105469 187.589844 222.84375 187.097656 222.625 186.578125 C 222.410156 186.058594 222.25 185.519531 222.140625 184.96875 C 222.03125 184.417969 221.972656 183.859375 221.972656 183.296875 L 221.972656 181.511719 C 221.972656 180.949219 222.03125 180.390625 222.140625 179.839844 C 222.25 179.289062 222.410156 178.75 222.625 178.230469 C 222.84375 177.710938 223.105469 177.21875 223.417969 176.75 C 223.730469 176.28125 224.085938 175.847656 224.484375 175.449219 C 224.882812 175.054688 225.316406 174.699219 225.785156 174.386719 C 226.253906 174.070312 226.746094 173.808594 227.265625 173.59375 C 227.785156 173.378906 228.320312 173.214844 228.875 173.105469 C 229.425781 172.996094 229.984375 172.941406 230.546875 172.941406 Z M 230.546875 172.941406 " fill-opacity="1" fill-rule="nonzero"/><path fill="#ffde7b" d="M 97.167969 216.027344 L 98.953125 216.027344 C 99.515625 216.027344 100.070312 216.082031 100.625 216.191406 C 101.175781 216.300781 101.710938 216.464844 102.230469 216.679688 C 102.753906 216.894531 103.246094 217.160156 103.714844 217.472656 C 104.183594 217.785156 104.613281 218.140625 105.011719 218.539062 C 105.410156 218.9375 105.765625 219.371094 106.078125 219.835938 C 106.390625 220.304688 106.65625 220.800781 106.871094 221.320312 C 107.085938 221.839844 107.25 222.375 107.359375 222.929688 C 107.46875 223.480469 107.523438 224.039062 107.523438 224.601562 L 107.523438 226.382812 C 107.523438 226.945312 107.46875 227.503906 107.359375 228.054688 C 107.25 228.609375 107.085938 229.144531 106.871094 229.664062 C 106.65625 230.183594 106.390625 230.679688 106.078125 231.148438 C 105.765625 231.613281 105.410156 232.046875 105.011719 232.445312 C 104.613281 232.84375 104.183594 233.199219 103.714844 233.511719 C 103.246094 233.824219 102.753906 234.089844 102.230469 234.304688 C 101.710938 234.519531 101.175781 234.683594 100.625 234.792969 C 100.070312 234.902344 99.515625 234.957031 98.953125 234.957031 L 97.167969 234.957031 C 96.605469 234.957031 96.046875 234.902344 95.496094 234.792969 C 94.941406 234.683594 94.40625 234.519531 93.886719 234.304688 C 93.367188 234.089844 92.875 233.824219 92.40625 233.511719 C 91.9375 233.199219 91.503906 232.84375 91.105469 232.445312 C 90.707031 232.046875 90.351562 231.613281 90.039062 231.148438 C 89.726562 230.679688 89.464844 230.183594 89.25 229.664062 C 89.03125 229.144531 88.871094 228.609375 88.761719 228.054688 C 88.652344 227.503906 88.59375 226.945312 88.59375 226.382812 L 88.59375 224.601562 C 88.59375 224.039062 88.652344 223.480469 88.761719 222.929688 C 88.871094 222.375 89.03125 221.839844 89.25 221.320312 C 89.464844 220.800781 89.726562 220.304688 90.039062 219.835938 C 90.351562 219.371094 90.707031 218.9375 91.105469 218.539062 C 91.503906 218.140625 91.9375 217.785156 92.40625 217.472656 C 92.875 217.160156 93.367188 216.894531 93.886719 216.679688 C 94.40625 216.464844 94.941406 216.300781 95.496094 216.191406 C 96.046875 216.082031 96.605469 216.027344 97.167969 216.027344 Z M 97.167969 216.027344 " fill-opacity="1" fill-rule="nonzero"/><path fill="#ffde7b" d="M 127.6875 216.027344 L 129.472656 216.027344 C 130.035156 216.027344 130.59375 216.082031 131.144531 216.191406 C 131.695312 216.300781 132.234375 216.464844 132.753906 216.679688 C 133.273438 216.894531 133.765625 217.160156 134.234375 217.472656 C 134.703125 217.785156 135.136719 218.140625 135.535156 218.539062 C 135.933594 218.9375 136.289062 219.371094 136.601562 219.835938 C 136.914062 220.304688 137.175781 220.800781 137.390625 221.320312 C 137.609375 221.839844 137.769531 222.375 137.878906 222.929688 C 137.988281 223.480469 138.046875 224.039062 138.046875 224.601562 L 138.046875 226.382812 C 138.046875 226.945312 137.988281 227.503906 137.878906 228.054688 C 137.769531 228.609375 137.609375 229.144531 137.390625 229.664062 C 137.175781 230.183594 136.914062 230.679688 136.601562 231.148438 C 136.289062 231.613281 135.933594 232.046875 135.535156 232.445312 C 135.136719 232.84375 134.703125 233.199219 134.234375 233.511719 C 133.765625 233.824219 133.273438 234.089844 132.753906 234.304688 C 132.234375 234.519531 131.695312 234.683594 131.144531 234.792969 C 130.59375 234.902344 130.035156 234.957031 129.472656 234.957031 L 127.6875 234.957031 C 127.125 234.957031 126.570312 234.902344 126.015625 234.792969 C 125.464844 234.683594 124.929688 234.519531 124.410156 234.304688 C 123.886719 234.089844 123.394531 233.824219 122.925781 233.511719 C 122.457031 233.199219 122.027344 232.84375 121.628906 232.445312 C 121.230469 232.046875 120.875 231.613281 120.5625 231.148438 C 120.25 230.679688 119.984375 230.183594 119.769531 229.664062 C 119.554688 229.144531 119.390625 228.609375 119.28125 228.054688 C 119.171875 227.503906 119.117188 226.945312 119.117188 226.382812 L 119.117188 224.601562 C 119.117188 224.039062 119.171875 223.480469 119.28125 222.929688 C 119.390625 222.375 119.554688 221.839844 119.769531 221.320312 C 119.984375 220.800781 120.25 220.304688 120.5625 219.835938 C 120.875 219.371094 121.230469 218.9375 121.628906 218.539062 C 122.027344 218.140625 122.457031 217.785156 122.925781 217.472656 C 123.394531 217.160156 123.886719 216.894531 124.410156 216.679688 C 124.929688 216.464844 125.464844 216.300781 126.015625 216.191406 C 126.570312 216.082031 127.125 216.027344 127.6875 216.027344 Z M 127.6875 216.027344 " fill-opacity="1" fill-rule="nonzero"/><path fill="#ffde7b" d="M 97.167969 241.921875 L 98.953125 241.921875 C 99.515625 241.921875 100.070312 241.976562 100.625 242.085938 C 101.175781 242.195312 101.710938 242.359375 102.230469 242.574219 C 102.753906 242.789062 103.246094 243.054688 103.714844 243.367188 C 104.183594 243.679688 104.613281 244.035156 105.011719 244.433594 C 105.410156 244.832031 105.765625 245.261719 106.078125 245.730469 C 106.390625 246.199219 106.65625 246.695312 106.871094 247.214844 C 107.085938 247.734375 107.25 248.269531 107.359375 248.820312 C 107.46875 249.375 107.523438 249.929688 107.523438 250.492188 L 107.523438 252.277344 C 107.523438 252.839844 107.46875 253.398438 107.359375 253.949219 C 107.25 254.503906 107.085938 255.039062 106.871094 255.558594 C 106.65625 256.078125 106.390625 256.574219 106.078125 257.039062 C 105.765625 257.507812 105.410156 257.941406 105.011719 258.339844 C 104.613281 258.738281 104.183594 259.09375 103.714844 259.40625 C 103.246094 259.71875 102.753906 259.980469 102.230469 260.199219 C 101.710938 260.414062 101.175781 260.574219 100.625 260.683594 C 100.070312 260.796875 99.515625 260.851562 98.953125 260.851562 L 97.167969 260.851562 C 96.605469 260.851562 96.046875 260.796875 95.496094 260.683594 C 94.941406 260.574219 94.40625 260.414062 93.886719 260.199219 C 93.367188 259.980469 92.875 259.71875 92.40625 259.40625 C 91.9375 259.09375 91.503906 258.738281 91.105469 258.339844 C 90.707031 257.941406 90.351562 257.507812 90.039062 257.039062 C 89.726562 256.574219 89.464844 256.078125 89.25 255.558594 C 89.03125 255.039062 88.871094 254.503906 88.761719 253.949219 C 88.652344 253.398438 88.59375 252.839844 88.59375 252.277344 L 88.59375 250.492188 C 88.59375 249.929688 88.652344 249.375 88.761719 248.820312 C 88.871094 248.269531 89.03125 247.734375 89.25 247.214844 C 89.464844 246.695312 89.726562 246.199219 90.039062 245.730469 C 90.351562 245.261719 90.707031 244.832031 91.105469 244.433594 C 91.503906 244.035156 91.9375 243.679688 92.40625 243.367188 C 92.875 243.054688 93.367188 242.789062 93.886719 242.574219 C 94.40625 242.359375 94.941406 242.195312 95.496094 242.085938 C 96.046875 241.976562 96.605469 241.921875 97.167969 241.921875 Z M 97.167969 241.921875 " fill-opacity="1" fill-rule="nonzero"/><path fill="#ffde7b" d="M 127.6875 241.921875 L 129.472656 241.921875 C 130.035156 241.921875 130.59375 241.976562 131.144531 242.085938 C 131.695312 242.195312 132.234375 242.359375 132.753906 242.574219 C 133.273438 242.789062 133.765625 243.054688 134.234375 243.367188 C 134.703125 243.679688 135.136719 244.035156 135.535156 244.433594 C 135.933594 244.832031 136.289062 245.261719 136.601562 245.730469 C 136.914062 246.199219 137.175781 246.695312 137.390625 247.214844 C 137.609375 247.734375 137.769531 248.269531 137.878906 248.820312 C 137.988281 249.375 138.046875 249.929688 138.046875 250.492188 L 138.046875 252.277344 C 138.046875 252.839844 137.988281 253.398438 137.878906 253.949219 C 137.769531 254.503906 137.609375 255.039062 137.390625 255.558594 C 137.175781 256.078125 136.914062 256.574219 136.601562 257.039062 C 136.289062 257.507812 135.933594 257.941406 135.535156 258.339844 C 135.136719 258.738281 134.703125 259.09375 134.234375 259.40625 C 133.765625 259.71875 133.273438 259.980469 132.753906 260.199219 C 132.234375 260.414062 131.695312 260.574219 131.144531 260.683594 C 130.59375 260.796875 130.035156 260.851562 129.472656 260.851562 L 127.6875 260.851562 C 127.125 260.851562 126.570312 260.796875 126.015625 260.683594 C 125.464844 260.574219 124.929688 260.414062 124.410156 260.199219 C 123.886719 259.980469 123.394531 259.71875 122.925781 259.40625 C 122.457031 259.09375 122.027344 258.738281 121.628906 258.339844 C 121.230469 257.941406 120.875 257.507812 120.5625 257.039062 C 120.25 256.574219 119.984375 256.078125 119.769531 255.558594 C 119.554688 255.039062 119.390625 254.503906 119.28125 253.949219 C 119.171875 253.398438 119.117188 252.839844 119.117188 252.277344 L 119.117188 250.492188 C 119.117188 249.929688 119.171875 249.375 119.28125 248.820312 C 119.390625 248.269531 119.554688 247.734375 119.769531 247.214844 C 119.984375 246.695312 120.25 246.199219 120.5625 245.730469 C 120.875 245.261719 121.230469 244.832031 121.628906 244.433594 C 122.027344 244.035156 122.457031 243.679688 122.925781 243.367188 C 123.394531 243.054688 123.886719 242.789062 124.410156 242.574219 C 124.929688 242.359375 125.464844 242.195312 126.015625 242.085938 C 126.570312 241.976562 127.125 241.921875 127.6875 241.921875 Z M 127.6875 241.921875 " fill-opacity="1" fill-rule="nonzero"/><path fill="#efe5dc" d="M 88.367188 284.605469 L 238.605469 284.605469 C 239.027344 284.605469 239.445312 284.644531 239.855469 284.726562 C 240.269531 284.808594 240.667969 284.929688 241.058594 285.089844 C 241.445312 285.253906 241.816406 285.449219 242.164062 285.683594 C 242.515625 285.917969 242.839844 286.183594 243.136719 286.480469 C 243.433594 286.777344 243.699219 287.101562 243.933594 287.449219 C 244.164062 287.796875 244.363281 288.167969 244.523438 288.554688 C 244.683594 288.945312 244.804688 289.34375 244.886719 289.757812 C 244.96875 290.167969 245.011719 290.585938 245.011719 291.003906 C 245.011719 291.425781 244.96875 291.839844 244.886719 292.253906 C 244.804688 292.667969 244.683594 293.066406 244.523438 293.453125 C 244.363281 293.84375 244.164062 294.210938 243.933594 294.5625 C 243.699219 294.910156 243.433594 295.234375 243.136719 295.53125 C 242.839844 295.828125 242.515625 296.09375 242.164062 296.328125 C 241.816406 296.5625 241.445312 296.757812 241.058594 296.917969 C 240.667969 297.078125 240.269531 297.199219 239.855469 297.28125 C 239.445312 297.363281 239.027344 297.40625 238.605469 297.40625 L 88.367188 297.40625 C 87.949219 297.40625 87.53125 297.363281 87.117188 297.28125 C 86.707031 297.199219 86.304688 297.078125 85.917969 296.917969 C 85.527344 296.757812 85.160156 296.5625 84.808594 296.328125 C 84.460938 296.09375 84.136719 295.828125 83.839844 295.53125 C 83.542969 295.234375 83.277344 294.910156 83.042969 294.5625 C 82.808594 294.210938 82.613281 293.84375 82.453125 293.453125 C 82.289062 293.066406 82.167969 292.667969 82.085938 292.253906 C 82.003906 291.839844 81.964844 291.425781 81.964844 291.003906 C 81.964844 290.585938 82.003906 290.167969 82.085938 289.757812 C 82.167969 289.34375 82.289062 288.945312 82.453125 288.554688 C 82.613281 288.167969 82.808594 287.796875 83.042969 287.449219 C 83.277344 287.101562 83.542969 286.777344 83.839844 286.480469 C 84.136719 286.183594 84.460938 285.917969 84.808594 285.683594 C 85.160156 285.449219 85.527344 285.253906 85.917969 285.089844 C 86.304688 284.929688 86.707031 284.808594 87.117188 284.726562 C 87.53125 284.644531 87.949219 284.605469 88.367188 284.605469 Z M 88.367188 284.605469 " fill-opacity="1" fill-rule="nonzero"/><path fill="#30241b" d="M 88.867188 304.472656 L 239.105469 304.472656 C 239.523438 304.472656 239.941406 304.511719 240.355469 304.59375 C 240.765625 304.675781 241.167969 304.796875 241.554688 304.957031 C 241.945312 305.117188 242.3125 305.316406 242.664062 305.550781 C 243.011719 305.785156 243.335938 306.046875 243.632812 306.347656 C 243.929688 306.644531 244.195312 306.964844 244.429688 307.316406 C 244.664062 307.664062 244.859375 308.035156 245.019531 308.421875 C 245.183594 308.808594 245.304688 309.210938 245.386719 309.621094 C 245.46875 310.035156 245.507812 310.453125 245.507812 310.871094 C 245.507812 311.292969 245.46875 311.707031 245.386719 312.121094 C 245.304688 312.53125 245.183594 312.933594 245.019531 313.320312 C 244.859375 313.710938 244.664062 314.078125 244.429688 314.425781 C 244.195312 314.777344 243.929688 315.101562 243.632812 315.398438 C 243.335938 315.695312 243.011719 315.960938 242.664062 316.195312 C 242.3125 316.425781 241.945312 316.625 241.554688 316.785156 C 241.167969 316.945312 240.765625 317.066406 240.355469 317.148438 C 239.941406 317.230469 239.523438 317.273438 239.105469 317.273438 L 88.867188 317.273438 C 88.445312 317.273438 88.027344 317.230469 87.617188 317.148438 C 87.203125 317.066406 86.804688 316.945312 86.414062 316.785156 C 86.027344 316.625 85.65625 316.425781 85.308594 316.195312 C 84.957031 315.960938 84.632812 315.695312 84.335938 315.398438 C 84.039062 315.101562 83.773438 314.777344 83.539062 314.425781 C 83.308594 314.078125 83.109375 313.710938 82.949219 313.320312 C 82.789062 312.933594 82.667969 312.53125 82.585938 312.121094 C 82.503906 311.707031 82.460938 311.292969 82.460938 310.871094 C 82.460938 310.453125 82.503906 310.035156 82.585938 309.621094 C 82.667969 309.210938 82.789062 308.808594 82.949219 308.421875 C 83.109375 308.035156 83.308594 307.664062 83.539062 307.316406 C 83.773438 306.964844 84.039062 306.644531 84.335938 306.347656 C 84.632812 306.046875 84.957031 305.785156 85.308594 305.550781 C 85.65625 305.316406 86.027344 305.117188 86.414062 304.957031 C 86.804688 304.796875 87.203125 304.675781 87.617188 304.59375 C 88.027344 304.511719 88.445312 304.472656 88.867188 304.472656 Z M 88.867188 304.472656 " fill-opacity="1" fill-rule="nonzero"/><path fill="#f1baa4" d="M 272.605469 255.769531 C 270.933594 251.710938 272.328125 251.390625 266.535156 243.328125 C 262.980469 238.355469 257.136719 235.242188 254.09375 236.824219 C 251.785156 233.910156 249.328125 231.125 246.71875 228.472656 C 240.0625 221.679688 237.425781 221.566406 236.210938 223.109375 C 234.699219 225.035156 238.34375 228.472656 242.289062 233.355469 C 243.78125 235.226562 246.488281 238.332031 246.488281 238.332031 C 246.148438 238.183594 245.789062 238.101562 245.414062 238.085938 C 245.042969 238.070312 244.679688 238.121094 244.324219 238.242188 C 243.972656 238.363281 243.652344 238.542969 243.367188 238.78125 C 243.078125 239.023438 242.847656 239.304688 242.664062 239.632812 C 241.300781 242.015625 243.132812 244.296875 243.132812 244.296875 C 242.804688 244.265625 242.476562 244.292969 242.152344 244.371094 C 241.828125 244.453125 241.527344 244.582031 241.246094 244.761719 C 240.96875 244.941406 240.726562 245.164062 240.519531 245.421875 C 240.3125 245.683594 240.152344 245.972656 240.042969 246.285156 C 239.175781 248.554688 241.65625 250.34375 241.65625 250.34375 C 241.65625 250.34375 238.34375 252.171875 240.847656 255.503906 C 243.347656 258.839844 250.945312 265.023438 255.863281 266.34375 C 260.785156 267.667969 267.007812 272.742188 267.007812 272.742188 C 267.007812 272.742188 282.648438 277.488281 285.253906 269.421875 C 285.253906 269.378906 274.457031 260.316406 272.605469 255.769531 Z M 272.605469 255.769531 " fill-opacity="1" fill-rule="nonzero"/><path fill="#ffde7b" d="M 357.1875 259.265625 C 355.429688 243.015625 349.445312 209.59375 336.652344 204.664062 C 316.558594 196.949219 315.96875 251.511719 316.382812 271.683594 C 303.855469 267.28125 282.632812 252.136719 273.394531 250.152344 C 269.425781 249.292969 258.144531 252.996094 255.929688 270.054688 C 253.632812 287.695312 304.324219 320.691406 336.757812 320.171875 C 363.855469 319.753906 358.851562 270.269531 357.1875 259.265625 Z M 357.1875 259.265625 " fill-opacity="1" fill-rule="nonzero"/><path fill="#30241b" d="M 336.011719 320.882812 C 324.761719 320.882812 310.636719 316.988281 296.136719 309.878906 C 282.570312 303.226562 270.050781 294.300781 262.644531 286.003906 C 257.238281 279.949219 254.675781 274.40625 255.253906 269.984375 C 256.589844 259.683594 261.082031 254.558594 264.605469 252.066406 C 267.996094 249.675781 271.539062 249.042969 273.550781 249.476562 C 278.453125 250.535156 286.507812 255.164062 295.035156 260.019531 C 302.320312 264.183594 309.839844 268.484375 315.648438 270.679688 C 315.441406 259.144531 315.648438 238.59375 318.941406 223.335938 C 319.011719 223.191406 319.121094 223.085938 319.269531 223.015625 C 319.414062 222.945312 319.566406 222.929688 319.722656 222.964844 C 319.882812 222.996094 320.011719 223.074219 320.117188 223.199219 C 320.21875 223.324219 320.277344 223.464844 320.28125 223.625 C 316.921875 239.199219 316.808594 260.402344 317.042969 271.652344 C 317.050781 271.894531 316.957031 272.085938 316.757812 272.222656 C 316.5625 272.359375 316.351562 272.390625 316.125 272.316406 C 310.089844 270.183594 302.09375 265.621094 294.355469 261.199219 C 285.921875 256.378906 277.957031 251.824219 273.257812 250.808594 C 271.539062 250.4375 268.445312 251.027344 265.394531 253.171875 C 262.097656 255.503906 257.890625 260.339844 256.617188 270.148438 C 256.09375 274.164062 258.53125 279.324219 263.667969 285.074219 C 278.453125 301.628906 312.863281 319.859375 336.757812 319.476562 C 337.992188 319.484375 339.210938 319.359375 340.417969 319.097656 C 341.621094 318.835938 342.78125 318.441406 343.898438 317.917969 C 345.015625 317.398438 346.0625 316.757812 347.035156 316.003906 C 348.011719 315.246094 348.890625 314.394531 349.675781 313.441406 C 362.050781 298.828125 357.117188 263.34375 356.511719 259.34375 C 356.46875 259.242188 356.449219 259.136719 356.453125 259.027344 C 356.457031 258.914062 356.488281 258.8125 356.539062 258.714844 C 356.59375 258.617188 356.664062 258.539062 356.757812 258.476562 C 356.847656 258.410156 356.945312 258.371094 357.054688 258.355469 C 357.164062 258.339844 357.273438 258.347656 357.378906 258.382812 C 357.484375 258.414062 357.574219 258.46875 357.65625 258.546875 C 357.734375 258.621094 357.792969 258.710938 357.832031 258.816406 C 357.867188 258.921875 357.882812 259.027344 357.871094 259.136719 C 358.480469 263.203125 363.484375 299.246094 350.71875 314.328125 C 349.875 315.359375 348.925781 316.28125 347.871094 317.097656 C 346.820312 317.910156 345.691406 318.601562 344.488281 319.167969 C 343.28125 319.730469 342.027344 320.15625 340.726562 320.441406 C 339.425781 320.726562 338.113281 320.863281 336.78125 320.855469 Z M 336.011719 320.882812 " fill-opacity="1" fill-rule="nonzero"/><path fill="#30241b" d="M 43.332031 228.878906 L 61.402344 228.878906 C 61.925781 228.878906 62.445312 228.90625 62.96875 228.957031 C 63.488281 229.007812 64.007812 229.085938 64.519531 229.1875 C 65.03125 229.289062 65.539062 229.414062 66.042969 229.566406 C 66.542969 229.71875 67.035156 229.894531 67.519531 230.097656 C 68.003906 230.296875 68.476562 230.519531 68.9375 230.765625 C 69.398438 231.011719 69.847656 231.28125 70.28125 231.574219 C 70.71875 231.863281 71.136719 232.175781 71.542969 232.507812 C 71.945312 232.839844 72.335938 233.191406 72.703125 233.5625 C 73.074219 233.929688 73.425781 234.320312 73.757812 234.722656 C 74.089844 235.128906 74.402344 235.546875 74.691406 235.984375 C 74.984375 236.417969 75.253906 236.867188 75.5 237.328125 C 75.746094 237.789062 75.96875 238.261719 76.167969 238.746094 C 76.371094 239.230469 76.546875 239.722656 76.699219 240.222656 C 76.851562 240.726562 76.976562 241.234375 77.078125 241.746094 C 77.179688 242.257812 77.257812 242.777344 77.308594 243.296875 C 77.359375 243.820312 77.386719 244.339844 77.386719 244.863281 C 77.386719 245.386719 77.359375 245.910156 77.308594 246.429688 C 77.257812 246.953125 77.179688 247.46875 77.078125 247.984375 C 76.976562 248.496094 76.851562 249.003906 76.699219 249.503906 C 76.546875 250.007812 76.371094 250.5 76.167969 250.980469 C 75.96875 251.464844 75.746094 251.9375 75.5 252.398438 C 75.253906 252.863281 74.984375 253.308594 74.691406 253.746094 C 74.402344 254.179688 74.089844 254.601562 73.757812 255.003906 C 73.425781 255.410156 73.074219 255.796875 72.703125 256.167969 C 72.335938 256.539062 71.945312 256.890625 71.542969 257.222656 C 71.136719 257.554688 70.71875 257.863281 70.28125 258.15625 C 69.847656 258.445312 69.398438 258.714844 68.9375 258.960938 C 68.476562 259.210938 68.003906 259.433594 67.519531 259.632812 C 67.035156 259.832031 66.542969 260.011719 66.042969 260.160156 C 65.539062 260.3125 65.03125 260.441406 64.519531 260.542969 C 64.007812 260.644531 63.488281 260.722656 62.96875 260.773438 C 62.445312 260.824219 61.925781 260.851562 61.402344 260.851562 L 43.332031 260.851562 C 42.808594 260.851562 42.285156 260.824219 41.765625 260.773438 C 41.246094 260.722656 40.726562 260.644531 40.214844 260.542969 C 39.699219 260.441406 39.195312 260.3125 38.691406 260.160156 C 38.191406 260.011719 37.699219 259.832031 37.214844 259.632812 C 36.730469 259.433594 36.257812 259.210938 35.796875 258.960938 C 35.335938 258.714844 34.886719 258.445312 34.453125 258.15625 C 34.015625 257.863281 33.597656 257.554688 33.191406 257.222656 C 32.785156 256.890625 32.398438 256.539062 32.03125 256.167969 C 31.660156 255.796875 31.308594 255.410156 30.976562 255.003906 C 30.644531 254.601562 30.332031 254.179688 30.042969 253.746094 C 29.75 253.308594 29.480469 252.863281 29.234375 252.398438 C 28.988281 251.9375 28.765625 251.464844 28.5625 250.980469 C 28.363281 250.5 28.1875 250.007812 28.035156 249.503906 C 27.882812 249.003906 27.757812 248.496094 27.65625 247.984375 C 27.550781 247.46875 27.476562 246.953125 27.425781 246.429688 C 27.371094 245.910156 27.347656 245.386719 27.347656 244.863281 C 27.347656 244.339844 27.371094 243.820312 27.425781 243.296875 C 27.476562 242.777344 27.550781 242.257812 27.65625 241.746094 C 27.757812 241.234375 27.882812 240.726562 28.035156 240.222656 C 28.1875 239.722656 28.363281 239.230469 28.5625 238.746094 C 28.765625 238.261719 28.988281 237.789062 29.234375 237.328125 C 29.480469 236.867188 29.75 236.417969 30.042969 235.984375 C 30.332031 235.546875 30.644531 235.128906 30.976562 234.722656 C 31.308594 234.320312 31.660156 233.929688 32.03125 233.5625 C 32.398438 233.191406 32.785156 232.839844 33.191406 232.507812 C 33.597656 232.175781 34.015625 231.863281 34.453125 231.574219 C 34.886719 231.28125 35.335938 231.011719 35.796875 230.765625 C 36.257812 230.519531 36.730469 230.296875 37.214844 230.097656 C 37.699219 229.894531 38.191406 229.71875 38.691406 229.566406 C 39.195312 229.414062 39.699219 229.289062 40.214844 229.1875 C 40.726562 229.085938 41.246094 229.007812 41.765625 228.957031 C 42.285156 228.90625 42.808594 228.878906 43.332031 228.878906 Z M 43.332031 228.878906 " fill-opacity="1" fill-rule="nonzero"/><path fill="#ffffff" d="M 46.746094 238.375 L 46.746094 250.542969 C 46.746094 250.632812 46.757812 250.722656 46.78125 250.808594 C 46.804688 250.894531 46.839844 250.976562 46.886719 251.054688 C 46.929688 251.128906 46.984375 251.199219 47.046875 251.261719 C 47.109375 251.328125 47.179688 251.378906 47.257812 251.425781 C 47.335938 251.46875 47.417969 251.503906 47.503906 251.527344 C 47.589844 251.550781 47.679688 251.5625 47.769531 251.5625 C 47.859375 251.566406 47.945312 251.554688 48.03125 251.53125 C 48.121094 251.507812 48.203125 251.476562 48.28125 251.433594 L 58.90625 245.347656 C 59.25 245.152344 59.421875 244.855469 59.421875 244.460938 C 59.421875 244.0625 59.25 243.765625 58.90625 243.570312 L 48.28125 237.488281 C 48.203125 237.441406 48.121094 237.410156 48.03125 237.386719 C 47.945312 237.363281 47.859375 237.355469 47.769531 237.355469 C 47.679688 237.355469 47.589844 237.367188 47.503906 237.390625 C 47.417969 237.414062 47.335938 237.449219 47.257812 237.492188 C 47.179688 237.539062 47.109375 237.59375 47.046875 237.65625 C 46.984375 237.71875 46.929688 237.789062 46.886719 237.867188 C 46.839844 237.941406 46.804688 238.023438 46.78125 238.113281 C 46.757812 238.199219 46.746094 238.285156 46.746094 238.375 Z M 46.746094 238.375 " fill-opacity="1" fill-rule="nonzero"/><path fill="#30241b" d="M 267.628906 76.5 L 226.210938 76.5 C 225.714844 76.5 225.226562 76.453125 224.738281 76.359375 C 224.253906 76.261719 223.78125 76.121094 223.324219 75.933594 C 222.867188 75.742188 222.433594 75.511719 222.019531 75.238281 C 221.609375 74.964844 221.226562 74.652344 220.875 74.300781 C 220.527344 73.953125 220.214844 73.570312 219.9375 73.160156 C 219.660156 72.75 219.429688 72.316406 219.238281 71.859375 C 219.050781 71.402344 218.90625 70.929688 218.808594 70.445312 C 218.710938 69.957031 218.664062 69.46875 218.664062 68.972656 L 218.664062 57.933594 C 218.664062 57.441406 218.710938 56.949219 218.808594 56.464844 C 218.90625 55.980469 219.050781 55.507812 219.238281 55.050781 C 219.429688 54.59375 219.660156 54.160156 219.9375 53.75 C 220.214844 53.335938 220.527344 52.957031 220.875 52.605469 C 221.226562 52.257812 221.609375 51.945312 222.019531 51.671875 C 222.433594 51.398438 222.867188 51.164062 223.324219 50.976562 C 223.78125 50.789062 224.253906 50.644531 224.738281 50.550781 C 225.226562 50.453125 225.714844 50.40625 226.210938 50.40625 L 267.628906 50.40625 C 268.121094 50.410156 268.613281 50.457031 269.097656 50.554688 C 269.582031 50.652344 270.050781 50.792969 270.507812 50.984375 C 270.964844 51.171875 271.398438 51.402344 271.808594 51.679688 C 272.21875 51.953125 272.597656 52.265625 272.949219 52.613281 C 273.296875 52.964844 273.609375 53.34375 273.882812 53.753906 C 274.160156 54.164062 274.390625 54.597656 274.582031 55.054688 C 274.769531 55.511719 274.914062 55.984375 275.007812 56.46875 C 275.105469 56.953125 275.15625 57.441406 275.15625 57.933594 L 275.15625 68.972656 C 275.15625 69.46875 275.105469 69.957031 275.007812 70.441406 C 274.914062 70.925781 274.769531 71.398438 274.582031 71.851562 C 274.390625 72.308594 274.160156 72.742188 273.882812 73.152344 C 273.609375 73.566406 273.296875 73.945312 272.949219 74.292969 C 272.597656 74.644531 272.21875 74.957031 271.808594 75.230469 C 271.398438 75.503906 270.964844 75.738281 270.507812 75.925781 C 270.050781 76.117188 269.582031 76.257812 269.097656 76.355469 C 268.613281 76.453125 268.121094 76.5 267.628906 76.5 Z M 226.210938 51.78125 C 225.808594 51.78125 225.410156 51.824219 225.015625 51.902344 C 224.621094 51.984375 224.238281 52.101562 223.863281 52.257812 C 223.492188 52.414062 223.140625 52.605469 222.804688 52.828125 C 222.472656 53.054688 222.164062 53.308594 221.878906 53.59375 C 221.59375 53.878906 221.339844 54.191406 221.117188 54.527344 C 220.894531 54.859375 220.707031 55.214844 220.550781 55.585938 C 220.398438 55.960938 220.28125 56.34375 220.203125 56.738281 C 220.125 57.132812 220.085938 57.53125 220.082031 57.933594 L 220.082031 68.972656 C 220.085938 69.378906 220.125 69.777344 220.203125 70.171875 C 220.285156 70.570312 220.402344 70.953125 220.554688 71.328125 C 220.710938 71.699219 220.902344 72.054688 221.125 72.390625 C 221.351562 72.726562 221.605469 73.035156 221.890625 73.320312 C 222.175781 73.609375 222.488281 73.863281 222.824219 74.085938 C 223.160156 74.3125 223.511719 74.5 223.886719 74.65625 C 224.257812 74.8125 224.644531 74.929688 225.039062 75.007812 C 225.433594 75.089844 225.835938 75.128906 226.238281 75.128906 L 267.65625 75.128906 C 268.0625 75.128906 268.460938 75.089844 268.855469 75.007812 C 269.253906 74.929688 269.636719 74.8125 270.011719 74.660156 C 270.382812 74.503906 270.738281 74.3125 271.074219 74.089844 C 271.410156 73.863281 271.722656 73.609375 272.007812 73.324219 C 272.292969 73.039062 272.546875 72.726562 272.773438 72.390625 C 272.996094 72.054688 273.1875 71.703125 273.339844 71.328125 C 273.496094 70.953125 273.613281 70.570312 273.691406 70.175781 C 273.773438 69.777344 273.8125 69.378906 273.8125 68.972656 L 273.8125 57.933594 C 273.8125 57.53125 273.773438 57.128906 273.695312 56.734375 C 273.613281 56.339844 273.5 55.953125 273.34375 55.578125 C 273.1875 55.207031 273 54.851562 272.773438 54.515625 C 272.550781 54.179688 272.292969 53.867188 272.007812 53.582031 C 271.722656 53.296875 271.414062 53.042969 271.078125 52.816406 C 270.742188 52.59375 270.386719 52.402344 270.011719 52.25 C 269.640625 52.09375 269.253906 51.976562 268.855469 51.898438 C 268.460938 51.820312 268.0625 51.78125 267.65625 51.78125 Z M 226.210938 51.78125 " fill-opacity="1" fill-rule="nonzero"/><path fill="#30241b" d="M 231.734375 51.089844 L 258.460938 51.089844 C 259.269531 51.089844 260.074219 51.167969 260.871094 51.328125 C 261.667969 51.484375 262.4375 51.71875 263.1875 52.03125 C 263.9375 52.34375 264.652344 52.722656 265.328125 53.171875 C 266 53.625 266.625 54.136719 267.199219 54.710938 C 267.773438 55.285156 268.285156 55.910156 268.738281 56.582031 C 269.1875 57.257812 269.566406 57.972656 269.878906 58.722656 C 270.1875 59.46875 270.421875 60.242188 270.582031 61.039062 C 270.742188 61.835938 270.820312 62.640625 270.820312 63.449219 C 270.820312 64.261719 270.742188 65.066406 270.582031 65.863281 C 270.421875 66.660156 270.1875 67.429688 269.878906 68.179688 C 269.566406 68.929688 269.1875 69.644531 268.738281 70.316406 C 268.285156 70.992188 267.773438 71.617188 267.199219 72.191406 C 266.625 72.765625 266 73.277344 265.324219 73.726562 C 264.652344 74.179688 263.9375 74.558594 263.1875 74.871094 C 262.4375 75.179688 261.667969 75.414062 260.871094 75.574219 C 260.074219 75.730469 259.269531 75.8125 258.460938 75.8125 L 231.734375 75.8125 C 230.921875 75.8125 230.117188 75.730469 229.320312 75.574219 C 228.527344 75.414062 227.753906 75.179688 227.003906 74.871094 C 226.253906 74.558594 225.542969 74.179688 224.867188 73.726562 C 224.191406 73.277344 223.566406 72.765625 222.992188 72.191406 C 222.417969 71.617188 221.90625 70.992188 221.457031 70.316406 C 221.003906 69.644531 220.625 68.929688 220.3125 68.179688 C 220.003906 67.429688 219.769531 66.660156 219.609375 65.863281 C 219.453125 65.066406 219.371094 64.261719 219.371094 63.449219 C 219.371094 62.640625 219.453125 61.835938 219.609375 61.039062 C 219.769531 60.242188 220.003906 59.46875 220.3125 58.722656 C 220.625 57.972656 221.003906 57.257812 221.457031 56.582031 C 221.90625 55.910156 222.417969 55.285156 222.992188 54.710938 C 223.566406 54.136719 224.191406 53.625 224.867188 53.171875 C 225.542969 52.722656 226.253906 52.34375 227.003906 52.03125 C 227.753906 51.71875 228.527344 51.484375 229.320312 51.328125 C 230.117188 51.167969 230.921875 51.089844 231.734375 51.089844 Z M 231.734375 51.089844 " fill-opacity="1" fill-rule="nonzero"/><path fill="#ffffff" d="M 237.144531 70.785156 C 236.898438 70.785156 236.675781 70.71875 236.472656 70.582031 L 227.234375 64.382812 C 226.886719 64.144531 226.707031 63.816406 226.699219 63.394531 C 226.699219 62.972656 226.871094 62.640625 227.21875 62.398438 L 236.460938 56 C 236.589844 55.917969 236.734375 55.859375 236.886719 55.828125 C 237.039062 55.800781 237.195312 55.800781 237.347656 55.832031 C 237.5 55.863281 237.640625 55.917969 237.773438 56.003906 C 237.902344 56.089844 238.011719 56.199219 238.101562 56.328125 C 238.191406 56.457031 238.253906 56.597656 238.285156 56.75 C 238.320312 56.902344 238.324219 57.054688 238.296875 57.207031 C 238.273438 57.363281 238.21875 57.507812 238.136719 57.640625 C 238.054688 57.773438 237.949219 57.886719 237.824219 57.976562 L 230.035156 63.371094 L 237.804688 68.582031 C 238.027344 68.730469 238.1875 68.933594 238.277344 69.1875 C 238.367188 69.441406 238.367188 69.699219 238.285156 69.953125 C 238.203125 70.210938 238.050781 70.417969 237.828125 70.570312 C 237.609375 70.726562 237.363281 70.796875 237.09375 70.785156 Z M 237.144531 70.785156 " fill-opacity="1" fill-rule="nonzero"/><path fill="#ffffff" d="M 256.070312 70.785156 C 255.804688 70.789062 255.566406 70.710938 255.351562 70.550781 C 255.136719 70.394531 254.992188 70.1875 254.914062 69.933594 C 254.839844 69.679688 254.84375 69.425781 254.933594 69.175781 C 255.023438 68.925781 255.179688 68.730469 255.402344 68.582031 L 263.171875 63.371094 L 255.386719 57.992188 C 255.261719 57.898438 255.160156 57.785156 255.078125 57.652344 C 254.996094 57.519531 254.941406 57.378906 254.914062 57.222656 C 254.890625 57.070312 254.894531 56.914062 254.925781 56.761719 C 254.960938 56.609375 255.023438 56.46875 255.109375 56.339844 C 255.199219 56.210938 255.308594 56.105469 255.441406 56.019531 C 255.570312 55.933594 255.710938 55.875 255.867188 55.84375 C 256.019531 55.816406 256.171875 55.816406 256.328125 55.84375 C 256.480469 55.875 256.621094 55.929688 256.753906 56.015625 L 265.992188 62.414062 C 266.160156 62.523438 266.289062 62.667969 266.382812 62.84375 C 266.476562 63.019531 266.523438 63.207031 266.523438 63.40625 C 266.523438 63.605469 266.476562 63.789062 266.382812 63.964844 C 266.289062 64.140625 266.160156 64.285156 265.992188 64.394531 L 256.753906 70.59375 C 256.546875 70.730469 256.320312 70.792969 256.070312 70.785156 Z M 256.070312 70.785156 " fill-opacity="1" fill-rule="nonzero"/><path fill="#ffffff" d="M 245.089844 72.597656 C 244.957031 72.597656 244.824219 72.578125 244.699219 72.535156 C 244.550781 72.480469 244.417969 72.398438 244.300781 72.292969 C 244.183594 72.1875 244.09375 72.0625 244.027344 71.917969 C 243.960938 71.773438 243.925781 71.625 243.917969 71.464844 C 243.910156 71.308594 243.933594 71.15625 243.988281 71.007812 L 249.382812 55.371094 C 249.433594 55.21875 249.511719 55.082031 249.617188 54.964844 C 249.722656 54.84375 249.847656 54.75 249.992188 54.679688 C 250.136719 54.609375 250.285156 54.570312 250.445312 54.5625 C 250.605469 54.550781 250.757812 54.574219 250.910156 54.625 C 251.0625 54.675781 251.195312 54.753906 251.316406 54.859375 C 251.433594 54.964844 251.53125 55.089844 251.597656 55.234375 C 251.667969 55.375 251.710938 55.527344 251.71875 55.6875 C 251.730469 55.84375 251.707031 56 251.65625 56.152344 L 246.253906 71.789062 C 246.171875 72.035156 246.019531 72.234375 245.804688 72.386719 C 245.589844 72.535156 245.351562 72.605469 245.089844 72.597656 Z M 245.089844 72.597656 " fill-opacity="1" fill-rule="nonzero"/></svg>